<?xml version="1.0" encoding="utf-8"?>
<!-- Generator: Adobe Illustrator 16.0.0, SVG Export Plug-In . SVG Version: 6.00 Build 0)  -->
<!DOCTYPE svg PUBLIC "-//W3C//DTD SVG 1.1//EN" "http://www.w3.org/Graphics/SVG/1.1/DTD/svg11.dtd">
<svg version="1.1" id="Layer_1" xmlns="http://www.w3.org/2000/svg" xmlns:xlink="http://www.w3.org/1999/xlink" x="0px" y="0px"
	 width="153.914px" height="116.97px" viewBox="45.224 -19.655 153.914 116.97"
	 enable-background="new 45.224 -19.655 153.914 116.97" xml:space="preserve">
<path opacity="0.05" enable-background="new    " d="M68.597,86.614c23.36,19.359,58.678-5.549,48.04-41.13
	c38.289,3.994,53.502-35.402,30.87-54.158c-22.632-18.757-58.942,2.909-47.422,40.441C62.077,26.787,45.237,67.254,68.597,86.614
	L68.597,86.614z M75.586,78.179c-16.856-13.97-2.433-42.203,28.929-34.904C116.503,72.271,92.445,92.15,75.586,78.179L75.586,78.179
	z M112.214,33.985c-14.34-28.727,12.171-48.033,28.53-34.352C157.105,13.315,141.82,42.17,112.214,33.985z"/>
<rect x="79.651" y="59.1" transform="matrix(-0.6381 0.77 -0.77 -0.6381 193.3497 33.375)" opacity="0.05" enable-background="new    " width="18.36" height="6.058"/>
<polygon opacity="0.05" enable-background="new    " points="127.748,19.768 123.883,24.431 118.928,20.325 122.793,15.661 
	118.129,11.795 122.237,6.84 126.9,10.705 130.765,6.042 135.721,10.149 131.856,14.812 136.519,18.677 132.411,23.634 "/>
</svg>
