<?xml version="1.0" encoding="utf-8"?>
<!-- Generator: Adobe Illustrator 16.0.0, SVG Export Plug-In . SVG Version: 6.00 Build 0)  -->
<!DOCTYPE svg PUBLIC "-//W3C//DTD SVG 1.1//EN" "http://www.w3.org/Graphics/SVG/1.1/DTD/svg11.dtd">
<svg version="1.1" id="Layer_1" xmlns="http://www.w3.org/2000/svg" xmlns:xlink="http://www.w3.org/1999/xlink" x="0px" y="0px"
	 width="49.094px" height="33.396px" viewBox="0 0 49.094 33.396" enable-background="new 0 0 49.094 33.396" xml:space="preserve">
<g opacity="0.05">
	<path fill-rule="evenodd" clip-rule="evenodd" d="M49.002,37.504c-0.119-0.688-0.223-1.424-0.355-2.057
		c-0.205-1.037-0.418-2.021-0.594-2.939l-0.043-0.062c-1.819-8.658-3.876-17.479-6.165-26.243l-0.086-0.35
		c-0.241-0.879-0.466-1.81-0.694-2.739c-0.307-1.059-0.604-2.173-1.227-3.304c-1.195-2.469-3.335-4.165-5.896-4.748
		c-2.613-0.596-5.225,0.019-7.401,1.61c-0.999,0.761-1.798,1.622-2.535,2.446c-0.609,0.739-1.216,1.481-1.813,2.169l-0.228,0.278
		C16.158,8.483,10.43,15.531,5.042,22.546l-0.076,0.093c-0.556,0.753-1.177,1.547-1.809,2.39c-0.392,0.516-0.796,1.083-1.211,1.703
		c-1.12,1.777-1.745,3.559-1.912,5.499c-0.319,4.049,1.544,7.936,4.816,10.219c1.227,0.887,2.577,1.467,4.042,1.799
		c0.416,0.096,0.952,0.162,1.382,0.203c1.771,0.188,3.676,0.016,5.626-0.584c2.416-0.713,4.847-1.973,7.716-3.955
		c1.727,3.031,3.423,5.23,5.24,6.904c1.496,1.389,3.145,2.367,4.821,2.969c0.405,0.148,0.917,0.32,1.333,0.414
		c1.462,0.334,2.985,0.404,4.422,0.129c3.991-0.631,7.311-3.391,8.767-7.127C49.034,41.469,49.239,39.592,49.002,37.504
		L49.002,37.504z M24.824,34.854c-2.012-4.195-3.079-7.953-3.064-10.92c0.012-1.259,0.199-2.314,0.569-3.219
		c0.296-0.813,0.775-1.474,1.336-2.003c1.314-1.184,3.188-1.693,5.121-1.253c1.933,0.441,3.466,1.67,4.075,3.347
		c0.275,0.72,0.421,1.522,0.336,2.384c-0.057,0.977-0.36,2.06-0.883,3.15C31.057,28.968,28.464,31.893,24.824,34.854L24.824,34.854z
		 M45.107,42.057c-0.984,2.635-3.347,4.568-6.147,5.031c-1.373,0.236-2.765,0.084-4.087-0.381c-1.271-0.455-2.482-1.172-3.663-2.264
		c-1.641-1.473-3.153-3.52-4.801-6.426c4.412-3.445,7.382-6.833,8.951-10.102c0.735-1.538,1.121-2.987,1.274-4.384
		c0.088-1.352-0.108-2.661-0.603-3.871c-1.084-2.72-3.49-4.698-6.52-5.387c-3.03-0.69-6.067,0.101-8.212,2.03
		c-0.967,0.879-1.712,1.974-2.218,3.232c-0.52,1.311-0.812,2.838-0.75,4.5c-0.002,3.627,1.249,8.032,3.677,13.037
		c-2.687,1.914-4.99,3.094-7.11,3.709c-1.536,0.475-2.937,0.596-4.276,0.453c-1.447-0.164-2.759-0.682-3.853-1.424
		c-2.323-1.629-3.614-4.396-3.362-7.194c0.141-1.343,0.542-2.626,1.399-3.968c0.274-0.486,0.655-0.95,1.057-1.518
		c0.556-0.752,1.179-1.545,1.798-2.337l0.077-0.092c5.377-6.963,11.051-14.024,16.836-20.839l0.228-0.276
		c0.596-0.69,1.203-1.43,1.8-2.119c0.608-0.74,1.257-1.417,1.987-1.963c1.383-1.006,2.999-1.352,4.618-0.982
		c1.618,0.369,2.928,1.378,3.739,2.883c0.419,0.811,0.712,1.702,0.939,2.632c0.239,0.88,0.467,1.811,0.707,2.688l0.086,0.35
		c2.198,8.688,4.254,17.509,6.086,26.114l-0.014,0.055c0.227,0.928,0.382,1.953,0.609,2.885c0.118,0.686,0.26,1.268,0.296,1.824
		C45.768,39.406,45.624,40.748,45.107,42.057L45.107,42.057z"/>
</g>
</svg>
