<?xml version="1.0" encoding="utf-8"?>
<!-- Generator: Adobe Illustrator 16.0.0, SVG Export Plug-In . SVG Version: 6.00 Build 0)  -->
<!DOCTYPE svg PUBLIC "-//W3C//DTD SVG 1.1//EN" "http://www.w3.org/Graphics/SVG/1.1/DTD/svg11.dtd">
<svg version="1.1" id="Layer_1" xmlns="http://www.w3.org/2000/svg" xmlns:xlink="http://www.w3.org/1999/xlink" x="0px" y="0px"
	 width="300px" height="300px" viewBox="0 0 300 300" enable-background="new 0 0 300 300" xml:space="preserve">
<g opacity="0.05">
	<path fill-rule="evenodd" clip-rule="evenodd" d="M136.673,169.299c-1.14-0.302-2.319-0.507-3.416-0.921
		c-21.41-8.074-40.833-5.83-60.213,7.56c-9.897,6.84-22.681,10.946-34.714,12.939c-23.81,3.942-40.294-13.452-35.598-37.004
		c7.334-36.784,26.147-67.102,56.127-89.669c21.807-16.414,40.18-15.352,62.016,1.165c8.429,6.376,16.526,13.48,25.744,18.455
		c14.441,7.791,30.183,7.863,46.199,4.777c8.722-1.679,17.831-3.02,26.607-2.372c17.192,1.271,28.479,12.122,35.402,26.982
		c16.593,35.614,17.991,72.494,5.848,109.554c-6.998,21.354-28.877,28.621-47.405,15.895c-8.133-5.584-14.623-13.824-21.046-21.535
		c-3.858-4.632-6.703-10.338-9.03-15.963c-6.059-14.642-17.271-22.481-32.159-26.029c-4.819-1.146-9.586-2.517-14.376-3.783
		C136.665,169.332,136.668,169.314,136.673,169.299z M72.245,116.652c-1.242,4.694-2.263,8.306-3.147,11.95
		c-1.761,7.252,0.439,12.25,5.993,13.817c5.749,1.621,10.602-1.79,12.741-9.086c1.098-3.743,2.015-7.541,3.118-11.708
		c4.261,1.128,7.424,2,10.606,2.799c8.183,2.054,13.456-0.009,15.167-5.891c1.792-6.159-1.848-10.542-10.581-12.956
		c-3.285-0.907-6.492-2.092-10.163-3.288c1.358-5.133,2.839-9.391,3.554-13.77c0.906-5.545-1.28-10.079-6.921-11.493
		c-5.581-1.398-9.627,1.303-11.543,6.764c-1.476,4.201-1.607,10.64-4.432,12.14c-3.249,1.726-8.802-0.894-13.356-1.617
		c-5.96-0.946-10.617,1.105-12.017,7.083c-1.405,6,1.988,9.916,7.659,11.69C62.927,114.342,67.034,115.273,72.245,116.652z
		 M216.245,167.514c1.56-6.408-2.949-13.735-9.341-15.173c-6.26-1.409-13.181,2.7-14.881,8.836
		c-1.786,6.437,2.416,13.641,8.949,15.346C207.615,178.257,214.637,174.117,216.245,167.514z M213.466,129.118
		c6.455,1.677,13.859-2.764,15.368-9.217c1.506-6.44-2.476-12.856-9.083-14.634c-6.588-1.772-13.215,1.89-15.029,8.302
		C202.835,120.232,206.869,127.405,213.466,129.118z M183.627,146.429c6.842,1.701,13.417-2.377,15.012-9.309
		c1.521-6.622-2.319-12.772-9.056-14.503c-6.562-1.688-13.059,2.064-14.816,8.561C172.896,138.093,176.743,144.718,183.627,146.429z
		 M246.088,150.499c1.803-6.306-1.94-13.189-8.24-15.159c-6.84-2.135-13.614,1.506-15.542,8.354
		c-1.859,6.604,1.645,13.12,8.125,15.106C237.217,160.881,244.173,157.19,246.088,150.499z"/>
	<path fill-rule="evenodd" clip-rule="evenodd" d="M153.667,69.814c9.702-27.887,34.443-41.735,61.506-35.402
		c7.353,1.721,14.606,3.858,21.926,5.73c20.306,5.191,38.605-4.051,46.496-23.429c0.802-1.967,1.146-4.892,2.604-5.659
		c3.21-1.691,7.324-3.718,10.474-3c5.002,1.143,6.12,5.731,4.922,10.833c-5.033,21.424-24.665,38.86-47.706,39.995
		c-10.349,0.51-20.872-2.561-31.317-3.999c-8.33-1.148-16.682-3.33-24.982-3.15c-9.709,0.209-17.103,6.054-22.668,13.999
		c-1.936,2.763-4.01,7.609-6.097,7.649C163.952,73.476,159.036,71.235,153.667,69.814z"/>
</g>
</svg>
