<?xml version="1.0" encoding="utf-8"?>
<!-- Generator: Adobe Illustrator 16.0.0, SVG Export Plug-In . SVG Version: 6.00 Build 0)  -->
<!DOCTYPE svg PUBLIC "-//W3C//DTD SVG 1.1//EN" "http://www.w3.org/Graphics/SVG/1.1/DTD/svg11.dtd">
<svg version="1.1" id="Layer_1" xmlns="http://www.w3.org/2000/svg" xmlns:xlink="http://www.w3.org/1999/xlink" x="0px" y="0px"
	 width="101.5px" height="179px" viewBox="0 0 101.5 179" enable-background="new 0 0 101.5 179" xml:space="preserve">
<path fill="#FFFFFF" d="M91.5,0H10C4.477,0,0,4.477,0,10v159c0,5.522,4.477,10,10,10h81.5c5.523,0,10-4.478,10-10V10
	C101.5,4.477,97.023,0,91.5,0z M75.794,8c1.494,0,2.706,1.211,2.706,2.706c0,1.494-1.212,2.706-2.706,2.706
	s-2.706-1.212-2.706-2.706C73.088,9.211,74.3,8,75.794,8z M34.5,8H67v5H34.5V8z M50.75,168c-4.971,0-9-4.029-9-9s4.029-9,9-9
	s9,4.029,9,9S55.721,168,50.75,168z M92,138.5H9.5v-117H92V138.5z"/>
</svg>
