<?xml version="1.0" encoding="utf-8"?>
<!-- Generator: Adobe Illustrator 16.0.0, SVG Export Plug-In . SVG Version: 6.00 Build 0)  -->
<!DOCTYPE svg PUBLIC "-//W3C//DTD SVG 1.1//EN" "http://www.w3.org/Graphics/SVG/1.1/DTD/svg11.dtd">
<svg version="1.1" id="Layer_1" xmlns="http://www.w3.org/2000/svg" xmlns:xlink="http://www.w3.org/1999/xlink" x="0px" y="0px"
	 width="280.773px" height="280.773px" viewBox="0 0 280.773 280.773" enable-background="new 0 0 280.773 280.773"
	 xml:space="preserve">
<g>
	<circle fill="#FFFFFF" cx="140.386" cy="140.385" r="25.48"/>
	<path fill="#FFFFFF" d="M276.422,128.385c0,0-8.621,0-10.741,0c-1.474,0-2.499-2.223-2.988-3.579
		c-0.686-6.1-1.814-12.063-3.357-17.86c0.042-1.369,0.329-2.98,1.4-3.423c1.958-0.811,9.925-4.11,9.925-4.11
		c2.218-0.919,3.271-3.464,2.354-5.684l-5.854-14.135c-0.92-2.219-3.465-3.271-5.685-2.354c0,0-7.966,3.302-9.926,4.114
		c-0.812,0.337-1.779-0.123-2.635-0.772c-3.427-6.386-7.397-12.436-11.856-18.084c-0.157-0.868-0.113-1.703,0.407-2.224
		c1.5-1.497,7.597-7.597,7.597-7.597c1.697-1.698,1.697-4.45,0.001-6.15l-10.817-10.818c-1.699-1.695-4.453-1.695-6.151,0
		c0,0-6.096,6.1-7.596,7.598c-0.422,0.423-1.054,0.529-1.739,0.472c-5.969-4.933-12.411-9.311-19.247-13.062
		c-0.214-0.516-0.286-1.032-0.094-1.496c0.812-1.957,4.11-9.924,4.11-9.924c0.919-2.219-0.137-4.764-2.354-5.685l-14.136-5.854
		c-2.219-0.917-4.764,0.137-5.684,2.355c0,0-3.298,7.966-4.109,9.925c-0.167,0.404-0.506,0.692-0.931,0.903
		c-7.54-2.297-15.385-3.896-23.463-4.708c-0.286-0.344-0.469-0.724-0.469-1.141c0-2.118,0-10.742,0-10.742
		c0-2.401-1.946-4.35-4.349-4.35h-15.299c-2.402,0-4.349,1.948-4.349,4.35c0,0,0,8.624,0,10.742c0,0.417-0.183,0.797-0.469,1.141
		c-8.077,0.813-15.922,2.411-23.461,4.709c-0.426-0.21-0.766-0.499-0.934-0.904c-0.812-1.958-4.111-9.924-4.111-9.924
		c-0.919-2.22-3.463-3.273-5.683-2.354l-14.133,5.854c-2.22,0.919-3.274,3.464-2.354,5.684c0,0,3.3,7.966,4.111,9.926
		c0.192,0.464,0.12,0.98-0.094,1.496c-6.834,3.75-13.275,8.127-19.242,13.059c-0.688,0.058-1.321-0.047-1.744-0.47
		c-1.498-1.501-7.595-7.597-7.595-7.597c-1.699-1.698-4.453-1.698-6.151,0L35.709,46.526c-1.697,1.699-1.699,4.453,0,6.152
		c0,0,6.099,6.097,7.597,7.596c0.522,0.522,0.564,1.361,0.405,2.231c-4.454,5.644-8.421,11.689-11.845,18.069
		c-0.858,0.653-1.829,1.117-2.644,0.779c-1.958-0.813-9.926-4.11-9.926-4.11c-2.219-0.919-4.763,0.137-5.683,2.354L7.758,93.732
		c-0.919,2.217,0.136,4.764,2.354,5.683c0,0,7.966,3.299,9.924,4.11c1.076,0.446,1.361,2.067,1.401,3.439
		c-1.541,5.789-2.668,11.746-3.352,17.837c-0.489,1.355-1.517,3.588-2.994,3.587c-2.118,0-10.741,0-10.741,0
		c-2.402,0.001-4.35,1.946-4.35,4.351L0,148.037c0.001,2.401,1.948,4.351,4.352,4.351c0,0,8.622,0,10.741,0
		c2.118,0,3.317,4.604,3.317,4.604h0.246c0.739,4.96,1.777,9.821,3.089,14.569l-0.402,0.166c-0.002-0.002,0.653,4.713-1.305,5.523
		c-1.958,0.81-9.924,4.111-9.924,4.111c-2.219,0.92-3.272,3.461-2.354,5.682l5.854,14.135c0.919,2.22,3.465,3.271,5.684,2.355
		c0,0,7.967-3.303,9.926-4.111c1.957-0.811,4.825,2.982,4.825,2.982l0.806-0.334c2.525,4.197,5.295,8.229,8.288,12.081l-0.748,0.747
		c0.002-0.002,2.411,4.102,0.912,5.6c-1.5,1.5-7.597,7.596-7.597,7.596c-1.697,1.699-1.697,4.451,0,6.152l10.817,10.818
		c1.698,1.696,4.453,1.696,6.151,0c0,0,6.097-6.101,7.596-7.599c1.498-1.5,5.601,0.91,5.601,0.91l0.971-0.972
		c3.86,2.881,7.896,5.539,12.087,7.959l-0.565,1.363c0.002,0,3.798,2.869,2.985,4.823c-0.812,1.959-4.11,9.929-4.11,9.929
		c-0.918,2.217,0.135,4.762,2.354,5.682l14.133,5.855c2.219,0.92,4.764-0.138,5.684-2.355c0,0,3.299-7.967,4.111-9.924
		c0.81-1.959,5.521-1.303,5.521-1.303l0.627-1.516c4.604,1.183,9.315,2.098,14.111,2.745v1.7c-0.001,0,4.605,1.199,4.604,3.318
		c0,2.118,0,10.741,0,10.741c0.001,2.4,1.947,4.349,4.351,4.351h15.298c2.401,0,4.35-1.947,4.352-4.353c0,0-0.002-8.621,0-10.741
		c-0.002-2.117,4.603-3.316,4.603-3.316v-1.7c4.796-0.647,9.506-1.562,14.11-2.745l0.627,1.515
		c-0.002-0.001,4.712-0.655,5.521,1.304c0.812,1.957,4.111,9.924,4.111,9.924c0.919,2.217,3.463,3.271,5.684,2.355l14.135-5.855
		c2.218-0.92,3.271-3.465,2.354-5.686c0,0-3.3-7.966-4.111-9.925c-0.811-1.957,2.983-4.823,2.983-4.823l-0.564-1.362
		c4.191-2.42,8.228-5.078,12.088-7.959l0.968,0.967c0,0.003,4.104-2.404,5.603-0.906c1.499,1.498,7.597,7.599,7.597,7.599
		c1.699,1.694,4.45,1.694,6.152,0l10.816-10.82c1.696-1.697,1.696-4.451-0.002-6.149c0,0-6.097-6.099-7.597-7.595
		c-1.499-1.5,0.909-5.604,0.909-5.604l-0.743-0.743c2.993-3.852,5.764-7.885,8.29-12.082l0.804,0.333
		c-0.001,0,2.87-3.797,4.825-2.987c1.959,0.812,9.926,4.113,9.926,4.113c2.22,0.916,4.764-0.139,5.685-2.355l5.854-14.133
		c0.918-2.221-0.137-4.764-2.354-5.686c0,0-7.967-3.299-9.925-4.109c-1.958-0.812-1.305-5.522-1.305-5.522l-0.399-0.165
		c1.312-4.749,2.351-9.612,3.089-14.573h0.243c-0.001,0.002,1.198-4.604,3.316-4.602c2.119,0,10.742,0,10.742,0
		c2.4-0.002,4.35-1.948,4.352-4.353v-15.298C280.772,130.333,278.825,128.385,276.422,128.385z M65.99,191.066
		c-6.959,0-12.6-5.643-12.6-12.601c0-6.96,5.641-12.601,12.6-12.601s12.602,5.641,12.602,12.601
		C78.592,185.424,72.949,191.066,65.99,191.066z M140.385,46.562c6.959,0,12.602,5.641,12.602,12.601
		c0,6.958-5.643,12.6-12.602,12.6s-12.6-5.642-12.6-12.6C127.785,52.203,133.427,46.562,140.385,46.562z M140.386,191.747
		c-28.365,0-51.359-22.996-51.359-51.363c0-28.363,22.994-51.357,51.359-51.357c28.364,0,51.359,22.994,51.358,51.357
		C191.745,168.751,168.751,191.747,140.386,191.747z M216.99,191.066c-6.959,0-12.6-5.643-12.6-12.601
		c0-6.96,5.641-12.601,12.6-12.601s12.602,5.641,12.602,12.601C229.592,185.424,223.949,191.066,216.99,191.066z"/>
</g>
</svg>
