<?xml version="1.0" encoding="utf-8"?>
<!-- Generator: Adobe Illustrator 16.0.0, SVG Export Plug-In . SVG Version: 6.00 Build 0)  -->
<!DOCTYPE svg PUBLIC "-//W3C//DTD SVG 1.1//EN" "http://www.w3.org/Graphics/SVG/1.1/DTD/svg11.dtd">
<svg version="1.1" id="Layer_1" xmlns="http://www.w3.org/2000/svg" xmlns:xlink="http://www.w3.org/1999/xlink" x="0px" y="0px"
	 width="153.516px" height="120.203px" viewBox="0 0 153.516 120.203" enable-background="new 0 0 153.516 120.203"
	 xml:space="preserve">
<g>
	<g>
		<polygon fill="#CCCCCC" points="43.499,96.039 21.277,120.203 44.653,120.203 66.518,96.039 		"/>
		<polygon fill="#333333" points="21.277,120.203 33.17,107.271 23.019,96.039 0,96.039 		"/>
	</g>
	<g>
		<polygon fill="#CCCCCC" points="86.998,96.039 64.776,120.203 88.151,120.203 110.017,96.039 		"/>
	</g>
	<g>
		<polygon fill="#CCCCCC" points="130.497,96.039 108.275,120.203 131.651,120.203 153.516,96.039 		"/>
	</g>
	<g>
		<rect x="130.513" y="5.16" fill="#333333" width="23.02" height="90.879"/>
		<polygon fill="#333333" points="66.533,96.039 66.533,5.16 43.515,5.16 43.515,96.039 64.792,120.203 76.685,107.271 		"/>
		<polygon fill="#333333" points="110.032,96.039 110.032,5.16 87.014,5.16 87.014,96.039 108.291,120.203 120.184,107.271 		"/>
	</g>
</g>
<rect x="43.499" fill="#77CE9A" width="23.019" height="5.121"/>
<rect x="86.998" fill="#D48FCE" width="23.019" height="5.121"/>
<rect x="130.497" fill="#6AC7DE" width="23.019" height="5.121"/>
</svg>
