<?xml version="1.0" encoding="utf-8"?>
<!-- Generator: Adobe Illustrator 16.0.0, SVG Export Plug-In . SVG Version: 6.00 Build 0)  -->
<!DOCTYPE svg PUBLIC "-//W3C//DTD SVG 1.1//EN" "http://www.w3.org/Graphics/SVG/1.1/DTD/svg11.dtd">
<svg version="1.1" id="Layer_1" xmlns="http://www.w3.org/2000/svg" xmlns:xlink="http://www.w3.org/1999/xlink" x="0px" y="0px"
	 width="156.094px" height="116.053px" viewBox="0 0 156.094 116.053" enable-background="new 0 0 156.094 116.053"
	 xml:space="preserve">
<g opacity="0.05">
	<path d="M21.182,24.832c-0.232-0.477-0.407-0.835-0.583-1.195c-1.914-3.918-3.831-7.834-5.739-11.754
		c-0.937-1.924-0.436-3.367,1.494-4.31C51.813-9.749,87.275-27.07,122.737-44.39c1.917-0.937,3.345-0.454,4.311,1.504
		c2.241,4.546,4.455,9.105,6.681,13.659c8.717,17.847,17.48,35.674,26.114,53.562c1.723,3.572,3.23,7.3,4.352,11.099
		c2.58,8.732-0.129,15.951-6.947,21.77c-3.333,2.842-6.998,5.192-10.924,7.115c-30.15,14.773-60.314,29.518-90.465,44.294
		c-5.04,2.47-9.738,1.88-14.17-1.374c-3.222-2.365-5.458-5.573-7.243-9.089c-2.513-4.948-4.964-9.931-7.416-14.912
		c-3.835-7.788-7.635-15.595-11.474-23.384C11.783,52.201,7.978,44.566,4.193,36.92c-1.058-2.137-0.589-3.5,1.542-4.542
		c4.755-2.323,9.51-4.646,14.265-6.968C20.359,25.235,20.718,25.058,21.182,24.832z M21.033,11.617
		c0.249,0.506,0.472,0.964,0.694,1.419c12.48,25.552,24.952,51.107,37.453,76.647c1.48,3.023,2.537,6.112,2.304,9.535
		c-0.005,0.051,0.084,0.111,0.183,0.237c0.347-0.168,0.71-0.345,1.072-0.521c26.086-12.744,52.174-25.484,78.258-38.23
		c4.355-2.126,8.609-4.417,12.354-7.555c5.215-4.364,7.34-9.777,5.389-16.414c-0.855-2.914-1.974-5.788-3.3-8.522
		c-10.578-21.794-21.233-43.547-31.866-65.314c-0.174-0.354-0.349-0.71-0.541-1.106C88.993-21.579,55.087-5.017,21.033,11.617z
		 M10.284,36.482c0.198,0.405,0.37,0.764,0.549,1.123c1.198,2.4,2.411,4.79,3.593,7.196c5.948,12.107,11.879,24.227,17.834,36.324
		c2.403,4.881,4.818,9.757,7.306,14.591c1.676,3.254,3.826,6.157,7.224,7.822c4.786,2.344,9.438-0.787,8.975-6.094
		c-0.13-1.479-0.622-3.006-1.275-4.35c-10.066-20.716-20.185-41.4-30.294-62.095c-0.17-0.351-0.342-0.702-0.517-1.059
		C19.149,32.15,14.775,34.287,10.284,36.482z"/>
	<path d="M77.342-4.052c11.717-5.723,23.435-11.439,35.144-17.179c1.186-0.582,2.288-0.654,3.328,0.212
		c1.426,1.187,1.317,3.347-0.202,4.437c-0.298,0.214-0.645,0.371-0.979,0.534C91.336-4.667,68.038,6.713,44.74,18.095
		c-1.668,0.813-2.974,0.704-3.89-0.316c-1.351-1.503-0.88-3.574,1.044-4.514c8.634-4.223,17.271-8.438,25.908-12.656
		C70.981-0.945,74.161-2.499,77.342-4.052z"/>
	<path d="M81.519,56.913C77,59.12,72.48,61.319,67.968,63.538c-0.777,0.383-1.528,0.609-2.312,0.067
		c-1.2-0.827-1.095-2.495,0.249-3.2c1.481-0.779,3.004-1.482,4.51-2.22c7.696-3.759,15.413-7.482,23.075-11.306
		c1.573-0.785,3.11,0.067,3.081,1.538c-0.021,0.946-0.602,1.448-1.397,1.833C90.616,52.459,86.068,54.69,81.519,56.913z"/>
	<path d="M85.142,64.353c-4.584,2.236-9.167,4.479-13.755,6.712c-1.3,0.632-2.257,0.302-2.752-0.892
		c-0.371-0.894-0.095-1.75,0.813-2.279c0.675-0.391,1.394-0.707,2.097-1.051c8.365-4.086,16.731-8.172,25.097-12.259
		c0.3-0.148,0.594-0.31,0.907-0.433c1.019-0.402,2.039-0.05,2.486,0.849c0.467,0.936,0.1,2.009-0.944,2.528
		c-3.203,1.585-6.42,3.144-9.634,4.711C88.019,62.944,86.581,63.65,85.142,64.353z"/>
	<path d="M122.573,36.86c-4.417,2.158-8.836,4.315-13.255,6.47c-0.334,0.165-0.663,0.348-1.018,0.46
		c-0.921,0.29-1.848-0.121-2.226-0.998c-0.389-0.898-0.183-1.676,0.601-2.273c0.234-0.175,0.515-0.296,0.783-0.427
		c9.001-4.396,18.004-8.794,27.005-13.19c0.135-0.066,0.266-0.137,0.403-0.194c1.128-0.48,2.068-0.182,2.556,0.804
		c0.485,0.983,0.163,1.966-0.901,2.521c-1.286,0.67-2.604,1.284-3.909,1.922C129.268,33.588,125.919,35.223,122.573,36.86z"/>
	<path d="M77.519,49.35C73,51.557,68.48,53.756,63.968,55.975c-0.777,0.382-1.528,0.609-2.312,0.067
		c-1.2-0.828-1.095-2.495,0.249-3.201c1.481-0.779,3.004-1.481,4.51-2.219c7.696-3.759,15.413-7.482,23.075-11.306
		c1.573-0.785,3.11,0.067,3.081,1.538c-0.021,0.946-0.602,1.448-1.397,1.833C86.616,44.896,82.068,47.127,77.519,49.35z"/>
	<path d="M118.573,29.297c-4.417,2.158-8.836,4.315-13.255,6.47c-0.334,0.165-0.663,0.348-1.018,0.46
		c-0.921,0.29-1.848-0.121-2.226-0.998c-0.389-0.898-0.183-1.676,0.601-2.273c0.234-0.175,0.515-0.296,0.783-0.427
		c9.001-4.396,18.004-8.794,27.005-13.19c0.135-0.066,0.266-0.137,0.403-0.194c1.128-0.48,2.068-0.182,2.556,0.804
		c0.485,0.983,0.163,1.966-0.901,2.521c-1.286,0.67-2.604,1.284-3.909,1.922C125.268,26.025,121.919,27.66,118.573,29.297z"/>
	<path d="M126.104,44.342c-4.586,2.239-9.169,4.484-13.758,6.714c-1.088,0.53-2.086,0.229-2.588-0.707
		c-0.528-0.986-0.171-2.008,0.922-2.613c0.261-0.147,0.532-0.269,0.8-0.399c5.623-2.748,11.245-5.493,16.87-8.24
		c3.246-1.584,6.49-3.174,9.742-4.75c0.398-0.19,0.832-0.396,1.258-0.417c0.921-0.041,1.582,0.451,1.834,1.337
		c0.276,0.987-0.087,1.751-1.024,2.208c-2.609,1.279-5.222,2.554-7.832,3.829C130.255,42.315,128.179,43.327,126.104,44.342z"/>
	<path d="M129.737,51.775c-4.585,2.239-9.155,4.51-13.774,6.676c-0.554,0.263-1.529,0.194-2.019-0.141
		c-0.448-0.307-0.775-1.25-0.653-1.801c0.127-0.571,0.774-1.167,1.345-1.468c2.101-1.123,4.265-2.124,6.408-3.171
		c6.727-3.285,13.453-6.57,20.182-9.856c0.368-0.178,0.733-0.37,1.116-0.508c1.064-0.368,1.978,0.023,2.405,0.994
		c0.425,0.971,0.088,1.886-0.955,2.401c-4.377,2.156-8.765,4.29-13.151,6.431C130.341,51.479,130.04,51.627,129.737,51.775z"/>
	<path d="M88.777,71.783c-4.619,2.257-9.239,4.505-13.853,6.774c-0.835,0.408-1.616,0.407-2.246-0.271
		c-0.595-0.643-0.823-1.447-0.298-2.254c0.213-0.325,0.542-0.633,0.889-0.806c9.262-4.542,18.532-9.069,27.807-13.584
		c0.759-0.372,1.625-0.419,2.135,0.308c0.356,0.512,0.602,1.31,0.477,1.893c-0.105,0.491-0.748,0.99-1.269,1.25
		C97.888,67.353,93.328,69.56,88.777,71.783z"/>
</g>
</svg>
