<?xml version="1.0" encoding="utf-8"?>
<!-- Generator: Adobe Illustrator 16.0.0, SVG Export Plug-In . SVG Version: 6.00 Build 0)  -->
<!DOCTYPE svg PUBLIC "-//W3C//DTD SVG 1.1//EN" "http://www.w3.org/Graphics/SVG/1.1/DTD/svg11.dtd">
<svg version="1.1" id="Layer_1" xmlns="http://www.w3.org/2000/svg" xmlns:xlink="http://www.w3.org/1999/xlink" x="0px" y="0px"
	 width="12.854px" height="25.338px" viewBox="0 0 12.854 25.338" enable-background="new 0 0 12.854 25.338" xml:space="preserve">
<g>
	<g>
		<g>
			<g>
				<path fill="#FFFFFF" d="M6.326,2.092c0.07-0.015,0.136-0.029,0.136-0.029L6.457,2.054L6.326,2.092z"/>
				<path fill="#FFFFFF" d="M6.225,2.238l0.041-0.013C6.261,2.224,6.26,2.222,6.256,2.22L6.225,2.238z"/>
				<path fill="#FFFFFF" d="M6.457,2.054C6.438,2.021,6.373,1.999,6.435,1.949C6.511,1.933,6.663,1.9,6.74,1.883
					c0.073-0.036-0.007-0.039-0.011-0.058c0.077-0.017,0.153-0.033,0.151-0.042c0.045-0.034-0.039-0.036-0.19-0.009
					C6.37,1.941,5.573,2.207,6.457,2.054z"/>
				<path fill="#FFFFFF" d="M5.892,2.294l0.381-0.121c0.035-0.03,0.085-0.064,0.04-0.077C6.114,2.161,6,2.229,5.892,2.294z"/>
				<path fill="#FFFFFF" d="M11.036,25.306c0.002-0.006,0.008-0.009,0.074,0.004L11.036,25.306c0,0.006,0.002,0.014-0.031,0.017
					c0.295,0.007,0.603,0.014,0.861,0.02l0.109-0.026c-0.359-0.015-0.709-0.027-1.078-0.043c-0.347-0.035-0.675-0.082-0.978-0.101
					C10.34,25.228,10.629,25.286,11.036,25.306z"/>
				<path fill="#FFFFFF" d="M12.032,25.259l0.074,0.004C12.04,25.25,12.034,25.252,12.032,25.259z"/>
				<path fill="#FFFFFF" d="M1.653,18.601c-0.173-0.42-0.387-0.769-0.522-1.151c0.292,0.812,0.678,1.61,1.029,2.165
					C1.993,19.278,1.783,18.958,1.653,18.601z"/>
				<path fill="#FFFFFF" d="M0.504,15.517c0.114,0.56,0.198,1.025,0.381,1.44c-0.161-0.431-0.225-0.881-0.34-1.317
					C0.531,15.599,0.519,15.56,0.504,15.517z"/>
				<path fill="#FFFFFF" d="M0.697,16.124c0.093,0.514,0.276,0.921,0.434,1.325C0.97,16.989,0.802,16.539,0.697,16.124z"/>
				<path fill="#FFFFFF" d="M7.013,23.468c0.295,0.12,0.47,0.197,0.566,0.245c0.048,0.011,0.111,0.024,0.202,0.034l-0.052-0.02
					c-0.312-0.143-0.61-0.276-0.901-0.408c-0.131-0.047-0.242-0.115-0.343-0.16C6.649,23.283,6.832,23.376,7.013,23.468z"/>
				<path fill="#FFFFFF" d="M7.58,23.713C7.164,23.632,7.966,23.894,7.58,23.713L7.58,23.713z"/>
				<polygon fill="#FFFFFF" points="5.458,23.168 5.419,23.136 5.3,23.046 				"/>
				<path fill="#FFFFFF" d="M2.909,19.978c0.165,0.235,0.314,0.482,0.494,0.699c-0.333-0.475-0.688-0.947-0.923-1.376
					c0.022,0.05,0.069,0.15,0.093,0.198C2.711,19.696,2.835,19.874,2.909,19.978z"/>
				<path fill="#FFFFFF" d="M7.5,24.254c-0.351-0.165-0.712-0.335-1.082-0.509c-0.326-0.199-0.66-0.402-1-0.609
					c-1.255-0.938-2.255-2.096-3.016-3.229c-0.33-0.503-0.724-1.233-1.038-2.005c-0.308-0.771-0.556-1.563-0.742-2.147
					c0.029,0.146,0.051,0.259,0.073,0.37c-0.046-0.146-0.096-0.307-0.152-0.484c-0.42-1.988-0.354-3.974-0.088-5.998
					C0.491,9.34,0.509,9.11,0.572,8.809c0.06-0.304,0.116-0.604,0.204-0.898c0-0.002-0.004,0.001-0.007,0.008
					c0.316-1.226,0.787-2.423,1.572-3.544c0.372-0.522,0.834-0.986,1.346-1.386c0.195-0.146,0.219-0.113,0.354-0.201
					C4.604,2.467,5.049,2.273,5.73,2.059c0,0,0.006,0.019,0.01,0.028c0.116-0.038,0.179-0.058,0.273-0.088
					C5.712,2.195,4.953,2.542,5.811,2.3l0,0L5.685,2.351L5.671,2.355l0.001,0.001C5.482,2.44,5.378,2.52,5.277,2.596l0.364-0.159
					C5.621,2.457,5.613,2.478,5.63,2.485L5.601,2.506C5.548,2.53,5.503,2.55,5.503,2.55C5.489,2.565,5.479,2.577,5.473,2.588
					C5.167,2.749,4.716,3.035,4.828,3.023C4.906,3.002,5.105,2.856,5.361,2.74c0.021-0.005,0.04-0.01,0.056-0.014
					C5.086,2.884,5.445,2.79,5.25,2.887C4.987,3.008,4.745,3.171,4.501,3.324C3.535,4,2.887,4.798,2.354,5.825L2.281,5.958
					c-0.12,0.27-0.229,0.515-0.336,0.755C1.851,6.968,1.759,7.216,1.661,7.482c0.007-0.038,0.014-0.074,0.021-0.109
					C1.539,7.794,1.41,8.225,1.332,8.665C1.121,9.741,1.06,10.84,1.021,12.006c-0.054,1.229,0.057,2.397,0.312,3.603
					c-0.141-0.484-0.183-0.989-0.268-1.5c-0.01-0.232-0.021-0.461-0.03-0.688c0.011,0.239,0.021,0.456,0.03,0.688
					c0.06,0.442,0.096,0.896,0.181,1.314c0.104,0.414,0.192,0.807,0.328,1.124c0.014,0.072,0.005,0.075,0.026,0.144
					c0.146,0.483,0.282,0.973,0.5,1.351c0.009-0.004,0.091,0.194,0.082,0.121c0.154,0.403,0.408,0.837,0.62,1.209
					c0.085,0.165,0.208,0.307,0.327,0.448c0.857,1.259,1.943,2.334,3.323,3.164c0.326,0.232,0.754,0.412,1.107,0.606
					c-0.284-0.13-0.559-0.255-0.826-0.377c-0.272-0.165-0.537-0.325-0.798-0.481c-0.477-0.381-0.936-0.739-1.294-1.063
					c-0.089-0.077-0.175-0.151-0.256-0.224c0.479,0.488,1.008,0.912,1.55,1.287c0.301,0.193,0.593,0.425,0.91,0.598l-0.021-0.01
					c-0.257-0.121-0.492-0.287-0.742-0.432c-0.455-0.3-0.837-0.662-1.202-0.928c-0.039-0.033-0.079-0.068-0.126-0.107
					c-0.089-0.076-0.174-0.15-0.256-0.223l0.458,0.436l0.497,0.383c0.201,0.16,0.406,0.314,0.63,0.439
					c0.131,0.088,0.267,0.18,0.399,0.271l-0.046-0.021c-0.122-0.07-0.52-0.195-0.357-0.053c0.446,0.328,1.05,0.604,1.52,0.836
					c0.49,0.182,0.771,0.284,0.854,0.314c0.026,0.031-0.404-0.111-0.837-0.26c-0.416-0.184-0.826-0.387-0.798-0.363
					c0.098,0.056,0.189,0.106,0.278,0.156c-0.087-0.035-0.176-0.071-0.271-0.11c-0.203-0.082-0.439-0.249-0.569-0.316
					c-0.226-0.116-0.464-0.252-0.695-0.411c-0.223-0.176-0.449-0.356-0.688-0.527c-0.3-0.213-0.618-0.518-0.963-0.801
					c-0.02,0.019-0.148-0.164-0.118-0.093c-0.259-0.327-0.567-0.698-0.717-0.812l-0.018-0.024c-0.012-0.014-0.035-0.046-0.07-0.093
					c-0.188-0.296-0.358-0.537-0.53-0.771c-0.141-0.229-0.31-0.506-0.465-0.759c-0.113-0.188-0.201-0.394-0.286-0.606
					c0.062,0.138,0.124,0.354,0.21,0.479l0.076,0.127c0.129,0.228,0.268,0.472,0.412,0.726c0.155,0.222,0.314,0.447,0.467,0.666
					c0.031,0.035,0.08,0.095,0.116,0.139c0.02,0.031,0.041,0.062,0.062,0.1l0.026,0.019c0.346,0.381,0.687,0.853,1.027,1.129
					c0.3,0.28,0.59,0.588,0.929,0.846l0.489,0.409c0.176,0.119,0.352,0.236,0.523,0.354c-0.175-0.104-0.353-0.213-0.53-0.32
					l-0.489-0.367c0.389,0.326,0.8,0.57,1.197,0.807l0.176,0.118c-0.007,0.013,0.39,0.21,0.39,0.21
					c-0.126-0.07-0.243-0.137-0.356-0.201c0.24,0.113,0.484,0.228,0.737,0.346c1.342,0.613,2.837,0.953,4.319,1.039l-0.102,0.031
					C11.026,25.097,10.67,25.058,10.33,25c-0.339-0.051-0.668-0.069-0.956-0.136c0.399,0.126,0.695,0.109,1.089,0.184
					c0,0.006,0.002,0.016-0.03,0.014c0.254,0.037,0.553,0.062,0.846,0.062l-0.312,0.061c-0.149,0.021-0.368-0.031-0.59-0.052
					c-0.246-0.034-0.479-0.067-0.708-0.102c-0.229-0.06-0.456-0.116-0.682-0.175c-0.458-0.099-0.887-0.28-1.337-0.439
					c-0.399-0.146-0.758-0.38-1.137-0.564c-0.365-0.211-0.705-0.459-1.056-0.684c0.354,0.215,0.688,0.43,1.021,0.617
					C6.829,23.948,7.164,24.112,7.5,24.254z M4.329,2.977c-0.057,0.047-0.12,0.099-0.187,0.154l0.032-0.016
					C4.235,3.071,4.289,3.02,4.329,2.977z M2.982,4.159c0.34-0.401,0.86-0.868,1.411-1.259l0.001-0.009
					C3.919,3.198,3.379,3.652,2.982,4.159z M1.648,5.81L1.656,5.8L1.652,5.798L1.648,5.81z M0.737,14.849
					c-0.146-0.584-0.174-1.336-0.211-2.083c0.005-0.224-0.028-0.447-0.021-0.747c-0.006-0.373-0.007-0.599,0.01-0.898l-0.037,0.224
					c0.057-0.521,0-0.829,0.102-1.349C0.568,9.993,0.559,9.916,0.57,9.841c0.034-0.376,0.122-0.746,0.169-1.045
					C0.795,8.42,0.893,8.053,0.961,7.754C0.982,7.68,0.994,7.525,1.026,7.375c0.062-0.184,0.121-0.357,0.181-0.533L1.192,6.861
					C1.146,6.996,1.104,7.117,1.041,7.299C0.936,7.748,0.792,8.264,0.725,8.715c-0.225,1.12-0.275,2.179-0.277,3.226
					c0.006,0.194,0.016,0.48,0.022,0.675c0.048,0.673,0.054,1.505,0.199,1.939C0.689,14.628,0.708,14.776,0.737,14.849z
					 M1.285,15.592c-0.187-0.741-0.299-1.591-0.303-2.315c-0.051-0.579-0.009-2.271-0.139-1.983c0.07,0.37,0.028,1.585,0.101,2.638
					c0.039,0.525,0.123,1.01,0.172,1.329C1.19,15.576,1.258,15.726,1.285,15.592z M3.899,20.911
					c-0.195-0.225-0.401-0.43-0.576-0.723C3.489,20.45,3.701,20.675,3.899,20.911z M1.961,18.496
					c0.452,0.844,0.974,1.731,1.602,2.444c0.463,0.559,0.989,1.172,1.538,1.535l0.019-0.022l-0.062-0.038
					c-0.197-0.16-0.331-0.314-0.473-0.477l0.028,0.025l-0.046-0.045c-0.096-0.104-0.198-0.21-0.322-0.326l-0.176-0.158
					c-0.594-0.68-1.16-1.426-1.589-2.134c-0.276-0.432-0.503-0.811-0.715-1.282C1.821,18.155,1.896,18.364,1.961,18.496z"/>
				<path fill="#FFFFFF" d="M6.309,23.597c0.27,0.168,0.573,0.281,0.859,0.43c0.223,0.111,0.455,0.195,0.692,0.267
					c1.097,0.417,2.449,0.722,3.711,0.733c0.037-0.026,0.043-0.057,0-0.088c-1.346-0.092-2.707-0.312-3.938-0.888l-0.03-0.008
					c-0.273-0.095-0.612-0.271-0.973-0.442c-0.304-0.185-0.59-0.355-1.013-0.61c-0.301-0.205-0.594-0.427-0.889-0.646
					c-0.262-0.236-0.512-0.464-0.818-0.742C4.641,22.38,5.421,23.035,6.309,23.597z"/>
				<path fill="#FFFFFF" d="M0.885,16.958c0.095,0.282,0.189,0.566,0.285,0.855c0.166,0.364,0.329,0.728,0.497,1.099
					c0.186,0.319,0.375,0.647,0.574,0.991c-0.256-0.495-0.552-0.978-0.746-1.51C1.253,17.88,1.068,17.437,0.885,16.958z"/>
				<path fill="#FFFFFF" d="M2.601,20.406c-0.125-0.173-0.243-0.341-0.36-0.503c0.229,0.341,0.458,0.684,0.69,1.027
					c0.266,0.314,0.515,0.643,0.793,0.941c0.925,0.98,2.048,1.768,3.26,2.32c0.144,0.067,0.278,0.133,0.407,0.193
					c-1.124-0.527-2.146-1.242-3.019-2.053c-0.888-0.8-1.556-1.74-2.149-2.614L2.16,19.614c0.229,0.449,0.54,0.849,0.812,1.267
					c0.329,0.375,0.606,0.793,0.979,1.126c-0.263-0.23-0.479-0.507-0.708-0.771C3.004,20.978,2.798,20.696,2.601,20.406z"/>
				<polygon fill="#FFFFFF" points="6.046,23.435 6.223,23.553 6.432,23.681 6.309,23.597 				"/>
				<path fill="#FFFFFF" d="M4.585,21.938l-0.018-0.02l-0.498-0.484c-0.238-0.271-0.46-0.521-0.667-0.758
					c0.196,0.234,0.39,0.467,0.591,0.705C4.196,21.595,4.406,21.778,4.585,21.938z"/>
				<path fill="#FFFFFF" d="M3.482,20.285c-0.039-0.06-0.116-0.177-0.154-0.237L3.243,19.95l0.108,0.169L3.482,20.285z"/>
				<path fill="#FFFFFF" d="M1.576,16.547c0.367,1.226,0.91,2.3,1.555,3.271c0.036,0.043,0.073,0.086,0.112,0.132
					c-0.224-0.322-0.411-0.665-0.591-1.005c-0.199-0.328-0.354-0.672-0.514-0.996c-0.062-0.129-0.177-0.315-0.226-0.45
					c-0.219-0.644-0.435-1.255-0.579-1.892c0.077,0.302,0.142,0.608,0.233,0.914L1.576,16.547z"/>
			</g>
		</g>
	</g>
</g>
<g>
	<g>
		<g>
			<g>
				<path fill="#FFFFFF" d="M7.074,2.087c0.07-0.015,0.135-0.029,0.135-0.029L7.205,2.05L7.074,2.087z"/>
				<path fill="#FFFFFF" d="M6.972,2.233l0.041-0.013C7.01,2.22,7.008,2.218,7.004,2.215L6.972,2.233z"/>
				<path fill="#FFFFFF" d="M7.205,2.05c-0.02-0.033-0.084-0.055-0.021-0.105C7.26,1.929,7.41,1.896,7.488,1.878
					C7.56,1.843,7.48,1.839,7.476,1.821c0.078-0.017,0.154-0.033,0.152-0.042C7.674,1.745,7.59,1.743,7.437,1.77
					C7.117,1.937,6.32,2.203,7.205,2.05z"/>
				<path fill="#FFFFFF" d="M6.64,2.29l0.381-0.121c0.035-0.03,0.084-0.064,0.039-0.077C6.861,2.157,6.748,2.225,6.64,2.29z"/>
				<path fill="#FFFFFF" d="M11.783,25.301c0.002-0.006,0.008-0.008,0.074,0.004L11.783,25.301c0,0.006,0.002,0.014-0.031,0.018
					c0.295,0.006,0.604,0.014,0.861,0.02l0.109-0.027c-0.359-0.014-0.709-0.027-1.078-0.043c-0.346-0.035-0.674-0.082-0.977-0.1
					C11.088,25.223,11.377,25.281,11.783,25.301z"/>
				<path fill="#FFFFFF" d="M12.779,25.254l0.074,0.004C12.787,25.246,12.781,25.248,12.779,25.254z"/>
				<path fill="#FFFFFF" d="M2.401,18.596c-0.173-0.42-0.387-0.768-0.522-1.15c0.292,0.811,0.678,1.609,1.029,2.164
					C2.74,19.273,2.531,18.953,2.401,18.596z"/>
				<path fill="#FFFFFF" d="M1.251,15.512c0.114,0.561,0.198,1.025,0.381,1.441c-0.161-0.432-0.225-0.881-0.34-1.318
					C1.279,15.594,1.267,15.555,1.251,15.512z"/>
				<path fill="#FFFFFF" d="M1.445,16.119c0.093,0.514,0.276,0.922,0.434,1.326C1.718,16.984,1.549,16.535,1.445,16.119z"/>
				<path fill="#FFFFFF" d="M7.761,23.463c0.295,0.121,0.469,0.197,0.566,0.246c0.047,0.01,0.111,0.023,0.201,0.033l-0.051-0.02
					c-0.312-0.143-0.611-0.275-0.902-0.408c-0.131-0.047-0.242-0.115-0.342-0.16C7.396,23.279,7.58,23.371,7.761,23.463z"/>
				<path fill="#FFFFFF" d="M8.328,23.709C7.912,23.627,8.713,23.889,8.328,23.709L8.328,23.709z"/>
				<polygon fill="#FFFFFF" points="6.205,23.164 6.166,23.131 6.047,23.041 				"/>
				<path fill="#FFFFFF" d="M3.656,19.973c0.165,0.236,0.314,0.482,0.494,0.699c-0.333-0.475-0.688-0.947-0.923-1.375
					c0.022,0.049,0.069,0.15,0.093,0.197C3.458,19.691,3.582,19.869,3.656,19.973z"/>
				<path fill="#FFFFFF" d="M8.248,24.25c-0.352-0.166-0.713-0.336-1.082-0.51c-0.326-0.199-0.66-0.402-1-0.609
					C4.91,22.193,3.91,21.035,3.15,19.902c-0.33-0.504-0.724-1.234-1.038-2.006c-0.308-0.77-0.556-1.562-0.742-2.146
					c0.029,0.145,0.051,0.258,0.073,0.369c-0.046-0.146-0.096-0.307-0.152-0.484c-0.42-1.987-0.354-3.973-0.088-5.997
					C1.239,9.335,1.256,9.105,1.32,8.805C1.379,8.5,1.436,8.201,1.524,7.907c0-0.002-0.004,0.001-0.007,0.008
					c0.316-1.226,0.787-2.423,1.572-3.544c0.372-0.522,0.834-0.986,1.346-1.386C4.63,2.839,4.654,2.872,4.789,2.784
					c0.562-0.321,1.007-0.515,1.689-0.729c0,0,0.006,0.019,0.01,0.028c0.115-0.038,0.178-0.058,0.273-0.088
					C6.459,2.19,5.7,2.538,6.558,2.295l0,0L6.433,2.347L6.418,2.351L6.42,2.352C6.23,2.436,6.125,2.516,6.025,2.592l0.364-0.159
					c-0.02,0.02-0.027,0.041-0.012,0.048L6.349,2.501c-0.055,0.024-0.1,0.044-0.1,0.044C6.236,2.561,6.226,2.573,6.22,2.583
					C5.914,2.745,5.463,3.031,5.575,3.019c0.078-0.021,0.277-0.167,0.533-0.283c0.021-0.005,0.04-0.01,0.055-0.014
					C5.833,2.879,6.193,2.786,5.997,2.883C5.735,3.003,5.492,3.167,5.248,3.32C4.282,3.996,3.635,4.793,3.102,5.821L3.029,5.954
					c-0.12,0.27-0.229,0.515-0.336,0.755C2.599,6.963,2.506,7.211,2.408,7.478c0.007-0.038,0.014-0.074,0.021-0.109
					C2.286,7.79,2.157,8.221,2.079,8.661c-0.211,1.076-0.271,2.175-0.311,3.341c-0.054,1.23,0.057,2.398,0.312,3.602
					c-0.141-0.484-0.183-0.989-0.268-1.499c-0.01-0.232-0.021-0.461-0.03-0.688c0.011,0.238,0.021,0.455,0.03,0.688
					c0.06,0.441,0.096,0.896,0.181,1.313c0.104,0.414,0.192,0.807,0.328,1.125c0.014,0.072,0.005,0.074,0.026,0.143
					c0.146,0.484,0.282,0.973,0.5,1.352c0.009-0.004,0.091,0.193,0.082,0.121c0.154,0.402,0.408,0.836,0.62,1.209
					c0.085,0.164,0.208,0.307,0.327,0.447c0.857,1.26,1.943,2.334,3.323,3.164c0.326,0.232,0.754,0.412,1.107,0.607
					c-0.283-0.131-0.559-0.256-0.826-0.377c-0.271-0.166-0.537-0.326-0.797-0.482c-0.477-0.381-0.936-0.738-1.294-1.062
					c-0.089-0.078-0.175-0.152-0.256-0.225c0.479,0.488,1.008,0.912,1.55,1.287c0.301,0.193,0.592,0.426,0.91,0.598l-0.021-0.01
					c-0.256-0.121-0.492-0.287-0.742-0.432c-0.455-0.299-0.836-0.662-1.202-0.928c-0.039-0.033-0.079-0.068-0.126-0.107
					c-0.089-0.076-0.174-0.15-0.256-0.223l0.458,0.436l0.497,0.383c0.201,0.16,0.406,0.314,0.631,0.439
					c0.131,0.088,0.266,0.18,0.398,0.271l-0.045-0.021c-0.123-0.07-0.52-0.195-0.357-0.053c0.445,0.328,1.049,0.604,1.52,0.836
					c0.49,0.182,0.77,0.285,0.854,0.314c0.025,0.031-0.404-0.111-0.838-0.26c-0.416-0.184-0.826-0.387-0.797-0.363
					c0.098,0.057,0.189,0.107,0.277,0.156c-0.086-0.035-0.176-0.07-0.271-0.109c-0.203-0.082-0.439-0.25-0.568-0.316
					c-0.227-0.117-0.465-0.252-0.695-0.412c-0.223-0.176-0.45-0.355-0.688-0.527c-0.3-0.213-0.618-0.518-0.963-0.801
					c-0.02,0.02-0.148-0.164-0.118-0.092c-0.259-0.328-0.567-0.699-0.717-0.812L3.807,20.67c-0.012-0.014-0.035-0.047-0.07-0.094
					c-0.188-0.295-0.358-0.537-0.53-0.771c-0.141-0.229-0.31-0.506-0.465-0.758c-0.113-0.189-0.201-0.395-0.286-0.607
					c0.062,0.139,0.124,0.355,0.21,0.48l0.076,0.127c0.129,0.227,0.268,0.471,0.412,0.725c0.155,0.223,0.314,0.447,0.467,0.666
					c0.031,0.035,0.08,0.096,0.116,0.139c0.02,0.031,0.041,0.062,0.062,0.1l0.026,0.02c0.346,0.381,0.687,0.852,1.027,1.129
					c0.3,0.279,0.59,0.588,0.929,0.846l0.489,0.408c0.176,0.119,0.352,0.236,0.523,0.354c-0.174-0.104-0.352-0.213-0.529-0.32
					l-0.49-0.367c0.388,0.326,0.8,0.57,1.197,0.807l0.176,0.119c-0.006,0.012,0.391,0.209,0.391,0.209
					c-0.127-0.07-0.244-0.137-0.357-0.201c0.24,0.113,0.484,0.229,0.738,0.346c1.342,0.613,2.836,0.953,4.318,1.039l-0.102,0.031
					c-0.361-0.002-0.717-0.041-1.057-0.098c-0.34-0.051-0.668-0.07-0.957-0.137c0.4,0.127,0.695,0.109,1.09,0.184
					c0,0.006,0.002,0.016-0.031,0.014c0.254,0.037,0.553,0.062,0.846,0.062l-0.311,0.061c-0.15,0.021-0.369-0.031-0.59-0.051
					c-0.246-0.035-0.479-0.068-0.709-0.102c-0.229-0.061-0.455-0.117-0.682-0.176c-0.457-0.098-0.887-0.279-1.336-0.439
					c-0.4-0.146-0.758-0.379-1.137-0.564c-0.365-0.211-0.705-0.459-1.057-0.684c0.355,0.215,0.688,0.43,1.021,0.617
					C7.576,23.943,7.912,24.107,8.248,24.25z M5.076,2.973C5.02,3.02,4.956,3.072,4.89,3.126l0.032-0.016
					C4.983,3.066,5.036,3.016,5.076,2.973z M3.73,4.155c0.34-0.401,0.86-0.868,1.411-1.259l0.001-0.009
					C4.666,3.194,4.126,3.647,3.73,4.155z M2.396,5.806l0.008-0.01L2.4,5.793L2.396,5.806z M1.485,14.845
					c-0.146-0.584-0.174-1.336-0.211-2.084c0.005-0.224-0.028-0.447-0.021-0.747c-0.006-0.373-0.007-0.599,0.01-0.898l-0.037,0.224
					c0.057-0.521,0-0.829,0.102-1.349c-0.011-0.002-0.02-0.079-0.009-0.154C1.352,9.46,1.44,9.09,1.487,8.792
					C1.542,8.416,1.641,8.048,1.708,7.75C1.73,7.676,1.741,7.521,1.774,7.371c0.062-0.184,0.121-0.357,0.181-0.533L1.94,6.856
					C1.894,6.992,1.852,7.113,1.788,7.294C1.684,7.744,1.539,8.26,1.473,8.71c-0.225,1.12-0.275,2.179-0.277,3.226
					c0.006,0.194,0.016,0.48,0.022,0.675c0.048,0.672,0.054,1.504,0.199,1.94C1.437,14.624,1.455,14.772,1.485,14.845z
					 M2.032,15.588c-0.187-0.741-0.299-1.591-0.303-2.315c-0.051-0.58-0.009-2.271-0.139-1.984c0.07,0.37,0.028,1.585,0.101,2.638
					c0.039,0.525,0.123,1.009,0.172,1.329C1.938,15.572,2.005,15.721,2.032,15.588z M4.647,20.906
					c-0.195-0.225-0.401-0.43-0.576-0.723C4.237,20.445,4.448,20.67,4.647,20.906z M2.708,18.492
					c0.452,0.844,0.974,1.73,1.602,2.443c0.463,0.559,0.989,1.172,1.538,1.535l0.019-0.021L5.805,22.41
					c-0.197-0.16-0.331-0.314-0.473-0.477l0.028,0.025l-0.046-0.045c-0.096-0.104-0.198-0.209-0.322-0.326L4.817,21.43
					c-0.594-0.68-1.16-1.426-1.589-2.133c-0.276-0.432-0.503-0.811-0.715-1.283C2.569,18.15,2.644,18.359,2.708,18.492z"/>
				<path fill="#FFFFFF" d="M7.056,23.592c0.27,0.168,0.574,0.281,0.859,0.43c0.223,0.111,0.455,0.195,0.693,0.268
					c1.096,0.416,2.449,0.721,3.711,0.732c0.037-0.025,0.043-0.057,0-0.088c-1.346-0.092-2.707-0.312-3.939-0.887l-0.029-0.008
					c-0.273-0.096-0.613-0.271-0.973-0.443c-0.305-0.184-0.59-0.355-1.014-0.609c-0.3-0.205-0.593-0.428-0.888-0.646
					c-0.262-0.236-0.512-0.463-0.818-0.742C5.389,22.375,6.168,23.031,7.056,23.592z"/>
				<path fill="#FFFFFF" d="M1.632,16.953c0.095,0.283,0.189,0.566,0.285,0.855c0.166,0.365,0.329,0.729,0.497,1.1
					c0.186,0.318,0.375,0.646,0.574,0.99c-0.256-0.494-0.552-0.977-0.746-1.51C2,17.875,1.816,17.432,1.632,16.953z"/>
				<path fill="#FFFFFF" d="M3.349,20.402c-0.125-0.174-0.243-0.342-0.36-0.504c0.229,0.342,0.458,0.684,0.69,1.027
					c0.266,0.314,0.515,0.643,0.793,0.941c0.925,0.98,2.047,1.768,3.26,2.32c0.143,0.068,0.277,0.133,0.406,0.193
					c-1.123-0.527-2.146-1.242-3.018-2.053c-0.888-0.799-1.556-1.74-2.149-2.613l-0.063-0.105c0.229,0.449,0.54,0.85,0.812,1.268
					c0.329,0.375,0.606,0.793,0.979,1.125c-0.263-0.23-0.479-0.506-0.708-0.771C3.751,20.973,3.545,20.691,3.349,20.402z"/>
				<polygon fill="#FFFFFF" points="6.793,23.43 6.97,23.549 7.179,23.676 7.056,23.592 				"/>
				<path fill="#FFFFFF" d="M5.332,21.934l-0.018-0.02L4.817,21.43c-0.238-0.27-0.46-0.521-0.667-0.758
					c0.196,0.234,0.39,0.467,0.591,0.705C4.944,21.59,5.154,21.773,5.332,21.934z"/>
				<path fill="#FFFFFF" d="M4.23,20.281c-0.039-0.061-0.116-0.178-0.154-0.238L3.99,19.945l0.108,0.17L4.23,20.281z"/>
				<path fill="#FFFFFF" d="M2.323,16.543c0.367,1.225,0.91,2.299,1.555,3.27c0.036,0.043,0.073,0.086,0.112,0.133
					c-0.224-0.322-0.411-0.666-0.591-1.006c-0.199-0.328-0.354-0.672-0.514-0.996c-0.062-0.129-0.177-0.314-0.226-0.449
					c-0.219-0.645-0.435-1.256-0.579-1.893c0.077,0.303,0.142,0.609,0.233,0.914L2.323,16.543z"/>
			</g>
		</g>
	</g>
</g>
<g>
	<g>
		<g>
			<g>
				<path fill="#FFFFFF" d="M7.231,1.816c0.07-0.015,0.135-0.029,0.135-0.029L7.362,1.778L7.231,1.816z"/>
				<path fill="#FFFFFF" d="M7.13,1.962l0.041-0.013c-0.004-0.001-0.006-0.003-0.01-0.005L7.13,1.962z"/>
				<path fill="#FFFFFF" d="M7.362,1.778c-0.02-0.033-0.084-0.055-0.021-0.105c0.076-0.016,0.227-0.049,0.305-0.066
					c0.072-0.036-0.008-0.039-0.012-0.058c0.078-0.017,0.154-0.033,0.152-0.042c0.045-0.034-0.039-0.036-0.191-0.009
					C7.274,1.665,6.477,1.931,7.362,1.778z"/>
				<path fill="#FFFFFF" d="M6.798,2.018l0.381-0.121c0.035-0.03,0.084-0.064,0.039-0.077C7.018,1.885,6.905,1.953,6.798,2.018z"/>
				<path fill="#FFFFFF" d="M11.94,25.029c0.002-0.006,0.008-0.008,0.074,0.004L11.94,25.029c0,0.006,0.002,0.014-0.031,0.018
					c0.295,0.006,0.604,0.014,0.861,0.02l0.109-0.027c-0.359-0.014-0.709-0.027-1.078-0.043c-0.346-0.035-0.674-0.082-0.977-0.1
					C11.245,24.951,11.534,25.01,11.94,25.029z"/>
				<path fill="#FFFFFF" d="M12.936,24.982l0.074,0.004C12.944,24.975,12.938,24.977,12.936,24.982z"/>
				<path fill="#FFFFFF" d="M2.558,18.324c-0.173-0.42-0.387-0.768-0.522-1.15c0.292,0.811,0.678,1.609,1.029,2.164
					C2.898,19.002,2.688,18.682,2.558,18.324z"/>
				<path fill="#FFFFFF" d="M1.408,15.24c0.114,0.561,0.198,1.025,0.381,1.441c-0.161-0.432-0.225-0.881-0.34-1.318
					C1.436,15.322,1.424,15.283,1.408,15.24z"/>
				<path fill="#FFFFFF" d="M1.602,15.848c0.093,0.514,0.276,0.922,0.434,1.326C1.875,16.713,1.706,16.264,1.602,15.848z"/>
				<path fill="#FFFFFF" d="M7.919,23.191c0.295,0.121,0.469,0.197,0.566,0.246c0.047,0.01,0.111,0.023,0.201,0.033l-0.051-0.02
					c-0.312-0.143-0.611-0.275-0.902-0.408c-0.131-0.047-0.242-0.115-0.342-0.16C7.553,23.008,7.737,23.1,7.919,23.191z"/>
				<path fill="#FFFFFF" d="M8.485,23.438C8.069,23.355,8.87,23.617,8.485,23.438L8.485,23.438z"/>
				<polygon fill="#FFFFFF" points="6.362,22.893 6.323,22.859 6.204,22.77 				"/>
				<path fill="#FFFFFF" d="M3.814,19.701c0.165,0.236,0.314,0.482,0.494,0.699c-0.333-0.475-0.688-0.947-0.923-1.375
					c0.022,0.049,0.069,0.15,0.093,0.197C3.615,19.42,3.74,19.598,3.814,19.701z"/>
				<path fill="#FFFFFF" d="M8.405,23.979c-0.352-0.166-0.713-0.336-1.082-0.51c-0.326-0.199-0.66-0.402-1-0.609
					c-1.255-0.938-2.255-2.096-3.016-3.229c-0.33-0.504-0.724-1.234-1.038-2.006c-0.308-0.77-0.556-1.562-0.742-2.146
					c0.029,0.145,0.051,0.258,0.073,0.369c-0.046-0.146-0.096-0.307-0.152-0.484c-0.42-1.987-0.354-3.973-0.088-5.997
					c0.036-0.302,0.054-0.532,0.117-0.833c0.06-0.304,0.116-0.604,0.204-0.898c0-0.002-0.004,0.001-0.007,0.008
					C1.99,6.417,2.461,5.22,3.246,4.099C3.618,3.577,4.08,3.113,4.592,2.713C4.787,2.568,4.811,2.6,4.947,2.512
					c0.562-0.321,1.007-0.515,1.689-0.729c0,0,0.006,0.019,0.01,0.028C6.76,1.773,6.823,1.753,6.919,1.723
					C6.616,1.919,5.858,2.266,6.716,2.024l0,0L6.591,2.075L6.575,2.079L6.577,2.08C6.387,2.164,6.282,2.244,6.182,2.32l0.364-0.159
					c-0.02,0.02-0.027,0.041-0.012,0.048L6.507,2.23c-0.055,0.024-0.1,0.044-0.1,0.044C6.393,2.289,6.384,2.301,6.378,2.312
					C6.072,2.473,5.62,2.759,5.733,2.747C5.811,2.726,6.01,2.58,6.266,2.464c0.021-0.005,0.04-0.01,0.055-0.014
					C5.99,2.608,6.35,2.514,6.155,2.611C5.892,2.732,5.65,2.895,5.406,3.048C4.44,3.724,3.792,4.522,3.259,5.549L3.186,5.682
					c-0.12,0.27-0.229,0.515-0.336,0.755C2.756,6.692,2.663,6.94,2.566,7.206c0.007-0.038,0.014-0.074,0.021-0.109
					c-0.143,0.421-0.271,0.852-0.35,1.292c-0.211,1.076-0.271,2.175-0.311,3.341c-0.054,1.23,0.057,2.398,0.312,3.602
					c-0.141-0.484-0.183-0.989-0.268-1.499c-0.01-0.232-0.021-0.461-0.03-0.688c0.011,0.238,0.021,0.455,0.03,0.688
					c0.06,0.441,0.096,0.896,0.181,1.313c0.104,0.414,0.192,0.807,0.328,1.125c0.014,0.072,0.005,0.074,0.026,0.143
					c0.146,0.484,0.282,0.973,0.5,1.352c0.009-0.004,0.091,0.193,0.082,0.121c0.154,0.402,0.408,0.836,0.62,1.209
					c0.085,0.164,0.208,0.307,0.327,0.447c0.857,1.26,1.943,2.334,3.323,3.164c0.326,0.232,0.754,0.412,1.107,0.607
					c-0.283-0.131-0.559-0.256-0.826-0.377c-0.271-0.166-0.537-0.326-0.797-0.482c-0.477-0.381-0.936-0.738-1.294-1.062
					c-0.089-0.078-0.175-0.152-0.256-0.225c0.479,0.488,1.008,0.912,1.55,1.287c0.301,0.193,0.592,0.426,0.91,0.598l-0.021-0.01
					c-0.256-0.121-0.492-0.287-0.742-0.432c-0.455-0.299-0.836-0.662-1.202-0.928c-0.039-0.033-0.079-0.068-0.126-0.107
					c-0.089-0.076-0.174-0.15-0.256-0.223l0.458,0.436l0.497,0.383c0.201,0.16,0.406,0.314,0.631,0.439
					c0.131,0.088,0.266,0.18,0.398,0.271l-0.045-0.021c-0.123-0.07-0.52-0.195-0.357-0.053c0.445,0.328,1.049,0.604,1.52,0.836
					c0.49,0.182,0.77,0.285,0.854,0.314c0.025,0.031-0.404-0.111-0.838-0.26c-0.416-0.184-0.826-0.387-0.797-0.363
					c0.098,0.057,0.189,0.107,0.277,0.156c-0.086-0.035-0.176-0.07-0.271-0.109c-0.203-0.082-0.439-0.25-0.568-0.316
					c-0.227-0.117-0.465-0.252-0.695-0.412c-0.223-0.176-0.45-0.355-0.688-0.527c-0.3-0.213-0.618-0.518-0.963-0.801
					c-0.02,0.02-0.148-0.164-0.118-0.092c-0.259-0.328-0.567-0.699-0.717-0.812l-0.018-0.023c-0.012-0.014-0.035-0.047-0.07-0.094
					c-0.188-0.295-0.358-0.537-0.53-0.771c-0.141-0.229-0.31-0.506-0.465-0.758c-0.113-0.189-0.201-0.395-0.286-0.607
					c0.062,0.139,0.124,0.355,0.21,0.48l0.076,0.127c0.129,0.227,0.268,0.471,0.412,0.725c0.155,0.223,0.314,0.447,0.467,0.666
					c0.031,0.035,0.08,0.096,0.116,0.139c0.02,0.031,0.041,0.062,0.062,0.1l0.026,0.02c0.346,0.381,0.687,0.852,1.027,1.129
					c0.3,0.279,0.59,0.588,0.929,0.846l0.489,0.408c0.176,0.119,0.352,0.236,0.523,0.354c-0.174-0.104-0.352-0.213-0.529-0.32
					l-0.49-0.367c0.388,0.326,0.8,0.57,1.197,0.807l0.176,0.119c-0.006,0.012,0.391,0.209,0.391,0.209
					c-0.127-0.07-0.244-0.137-0.357-0.201c0.24,0.113,0.484,0.229,0.738,0.346c1.342,0.613,2.836,0.953,4.318,1.039l-0.102,0.031
					c-0.361-0.002-0.717-0.041-1.057-0.098c-0.34-0.051-0.668-0.07-0.957-0.137c0.4,0.127,0.695,0.109,1.09,0.184
					c0,0.006,0.002,0.016-0.031,0.014c0.254,0.037,0.553,0.062,0.846,0.062l-0.311,0.061c-0.15,0.021-0.369-0.031-0.59-0.051
					c-0.246-0.035-0.479-0.068-0.709-0.102c-0.229-0.061-0.455-0.117-0.682-0.176c-0.457-0.098-0.887-0.279-1.336-0.439
					c-0.4-0.146-0.758-0.379-1.137-0.564c-0.365-0.211-0.705-0.459-1.057-0.684c0.355,0.215,0.688,0.43,1.021,0.617
					C7.733,23.672,8.069,23.836,8.405,23.979z M5.234,2.701C5.177,2.748,5.114,2.8,5.047,2.855l0.032-0.016
					C5.14,2.795,5.194,2.744,5.234,2.701z M3.887,3.883c0.34-0.401,0.86-0.868,1.411-1.259l0.001-0.009
					C4.823,2.922,4.283,3.376,3.887,3.883z M2.553,5.534l0.008-0.01L2.557,5.522L2.553,5.534z M1.642,14.573
					c-0.146-0.584-0.174-1.336-0.211-2.084c0.005-0.224-0.028-0.447-0.021-0.747c-0.006-0.373-0.007-0.599,0.01-0.898l-0.037,0.224
					c0.057-0.521,0-0.829,0.102-1.349C1.473,9.717,1.464,9.64,1.475,9.565C1.509,9.189,1.597,8.819,1.644,8.52
					c0.056-0.376,0.154-0.743,0.222-1.042c0.021-0.074,0.033-0.229,0.065-0.379c0.062-0.184,0.121-0.357,0.181-0.533L2.097,6.585
					C2.051,6.72,2.009,6.841,1.946,7.023C1.841,7.472,1.697,7.988,1.63,8.439c-0.225,1.12-0.275,2.179-0.277,3.226
					c0.006,0.194,0.016,0.48,0.022,0.675c0.048,0.672,0.054,1.504,0.199,1.94C1.594,14.353,1.613,14.501,1.642,14.573z M2.19,15.316
					c-0.187-0.741-0.299-1.591-0.303-2.315c-0.051-0.58-0.009-2.271-0.139-1.984c0.07,0.37,0.028,1.585,0.101,2.638
					c0.039,0.525,0.123,1.009,0.172,1.329C2.095,15.301,2.162,15.449,2.19,15.316z M4.804,20.635
					c-0.195-0.225-0.401-0.43-0.576-0.723C4.394,20.174,4.606,20.398,4.804,20.635z M2.865,18.221
					c0.452,0.844,0.974,1.73,1.602,2.443c0.463,0.559,0.989,1.172,1.538,1.535l0.019-0.021l-0.062-0.039
					c-0.197-0.16-0.331-0.314-0.473-0.477l0.028,0.025l-0.046-0.045c-0.096-0.104-0.198-0.209-0.322-0.326l-0.176-0.158
					c-0.594-0.68-1.16-1.426-1.589-2.133c-0.276-0.432-0.503-0.811-0.715-1.283C2.726,17.879,2.801,18.088,2.865,18.221z"/>
				<path fill="#FFFFFF" d="M7.214,23.32c0.27,0.168,0.574,0.281,0.859,0.43c0.223,0.111,0.455,0.195,0.693,0.268
					c1.096,0.416,2.449,0.721,3.711,0.732c0.037-0.025,0.043-0.057,0-0.088c-1.346-0.092-2.707-0.312-3.939-0.887l-0.029-0.008
					c-0.273-0.096-0.613-0.271-0.973-0.443c-0.305-0.184-0.59-0.355-1.014-0.609c-0.3-0.205-0.593-0.428-0.888-0.646
					c-0.262-0.236-0.512-0.463-0.818-0.742C5.546,22.104,6.325,22.76,7.214,23.32z"/>
				<path fill="#FFFFFF" d="M1.789,16.682c0.095,0.283,0.189,0.566,0.285,0.855c0.166,0.365,0.329,0.729,0.497,1.1
					c0.186,0.318,0.375,0.646,0.574,0.99C2.89,19.133,2.594,18.65,2.4,18.117C2.157,17.604,1.973,17.16,1.789,16.682z"/>
				<path fill="#FFFFFF" d="M3.506,20.131c-0.125-0.174-0.243-0.342-0.36-0.504c0.229,0.342,0.458,0.684,0.69,1.027
					c0.266,0.314,0.515,0.643,0.793,0.941c0.925,0.98,2.047,1.768,3.26,2.32c0.143,0.068,0.277,0.133,0.406,0.193
					c-1.123-0.527-2.146-1.242-3.018-2.053c-0.888-0.799-1.556-1.74-2.149-2.613l-0.063-0.105c0.229,0.449,0.54,0.85,0.812,1.268
					c0.329,0.375,0.606,0.793,0.979,1.125c-0.263-0.23-0.479-0.506-0.708-0.771C3.908,20.701,3.702,20.42,3.506,20.131z"/>
				<polygon fill="#FFFFFF" points="6.95,23.158 7.128,23.277 7.337,23.404 7.214,23.32 				"/>
				<path fill="#FFFFFF" d="M5.49,21.662l-0.018-0.02l-0.498-0.484c-0.238-0.27-0.46-0.521-0.667-0.758
					c0.196,0.234,0.39,0.467,0.591,0.705C5.101,21.318,5.311,21.502,5.49,21.662z"/>
				<path fill="#FFFFFF" d="M4.387,20.01c-0.039-0.061-0.116-0.178-0.154-0.238l-0.085-0.098l0.108,0.17L4.387,20.01z"/>
				<path fill="#FFFFFF" d="M2.481,16.271c0.367,1.225,0.91,2.299,1.555,3.27c0.036,0.043,0.073,0.086,0.112,0.133
					c-0.224-0.322-0.411-0.666-0.591-1.006c-0.199-0.328-0.354-0.672-0.514-0.996c-0.062-0.129-0.177-0.314-0.226-0.449
					c-0.219-0.645-0.435-1.256-0.579-1.893c0.077,0.303,0.142,0.609,0.233,0.914L2.481,16.271z"/>
			</g>
		</g>
	</g>
</g>
<g>
	<g>
		<g>
			<g>
				<path fill="#FFFFFF" d="M7.167,2.212c0.07-0.015,0.135-0.029,0.135-0.029L7.298,2.174L7.167,2.212z"/>
				<path fill="#FFFFFF" d="M7.065,2.358l0.041-0.013C7.102,2.344,7.1,2.342,7.096,2.34L7.065,2.358z"/>
				<path fill="#FFFFFF" d="M7.298,2.174c-0.02-0.033-0.084-0.055-0.021-0.105C7.352,2.053,7.503,2.02,7.581,2.003
					c0.072-0.036-0.008-0.039-0.012-0.058c0.078-0.017,0.154-0.033,0.152-0.042C7.766,1.869,7.682,1.867,7.53,1.894
					C7.21,2.061,6.413,2.327,7.298,2.174z"/>
				<path fill="#FFFFFF" d="M6.734,2.414l0.38-0.121c0.035-0.03,0.084-0.064,0.039-0.077C6.954,2.281,6.841,2.349,6.734,2.414z"/>
				<path fill="#FFFFFF" d="M11.876,25.425c0.002-0.006,0.008-0.008,0.074,0.004L11.876,25.425c0,0.006,0.002,0.014-0.031,0.018
					c0.295,0.006,0.604,0.014,0.861,0.02l0.109-0.027c-0.359-0.014-0.709-0.027-1.078-0.043c-0.346-0.035-0.674-0.082-0.977-0.1
					C11.18,25.347,11.469,25.405,11.876,25.425z"/>
				<path fill="#FFFFFF" d="M12.872,25.378l0.074,0.004C12.88,25.37,12.874,25.372,12.872,25.378z"/>
				<path fill="#FFFFFF" d="M2.494,18.72c-0.173-0.42-0.387-0.768-0.522-1.15c0.292,0.811,0.678,1.609,1.029,2.164
					C2.834,19.397,2.624,19.077,2.494,18.72z"/>
				<path fill="#FFFFFF" d="M1.344,15.636c0.114,0.561,0.198,1.025,0.381,1.441c-0.161-0.432-0.225-0.881-0.34-1.318
					C1.372,15.718,1.36,15.679,1.344,15.636z"/>
				<path fill="#FFFFFF" d="M1.538,16.243c0.093,0.514,0.276,0.922,0.434,1.326C1.811,17.108,1.642,16.659,1.538,16.243z"/>
				<path fill="#FFFFFF" d="M7.854,23.587c0.295,0.121,0.469,0.197,0.566,0.246c0.047,0.01,0.111,0.023,0.201,0.033l-0.051-0.02
					c-0.312-0.143-0.611-0.275-0.902-0.408c-0.131-0.047-0.242-0.115-0.342-0.16C7.489,23.403,7.673,23.495,7.854,23.587z"/>
				<path fill="#FFFFFF" d="M8.421,23.833C8.005,23.751,8.805,24.013,8.421,23.833L8.421,23.833z"/>
				<polygon fill="#FFFFFF" points="6.298,23.288 6.259,23.255 6.14,23.165 				"/>
				<path fill="#FFFFFF" d="M3.75,20.097c0.165,0.236,0.314,0.482,0.494,0.699c-0.333-0.475-0.688-0.947-0.923-1.375
					c0.022,0.049,0.069,0.15,0.093,0.197C3.552,19.815,3.676,19.993,3.75,20.097z"/>
				<path fill="#FFFFFF" d="M8.341,24.374c-0.352-0.166-0.713-0.336-1.082-0.51c-0.326-0.199-0.66-0.402-1-0.609
					c-1.255-0.938-2.255-2.096-3.016-3.229c-0.33-0.504-0.724-1.234-1.038-2.006c-0.308-0.77-0.556-1.562-0.742-2.146
					c0.029,0.145,0.051,0.258,0.073,0.369c-0.046-0.146-0.096-0.307-0.152-0.484c-0.42-1.986-0.354-3.973-0.088-5.997
					C1.332,9.46,1.349,9.23,1.413,8.929c0.06-0.304,0.116-0.604,0.204-0.898c0-0.002-0.004,0.001-0.007,0.008
					c0.316-1.226,0.787-2.423,1.572-3.544c0.372-0.522,0.834-0.986,1.346-1.386c0.195-0.146,0.219-0.113,0.354-0.201
					c0.562-0.321,1.007-0.515,1.689-0.729c0,0,0.006,0.019,0.01,0.028c0.115-0.038,0.178-0.058,0.273-0.088
					C6.552,2.315,5.794,2.662,6.652,2.42l0,0L6.527,2.471L6.511,2.475l0.002,0.001C6.323,2.56,6.219,2.64,6.118,2.716l0.364-0.159
					c-0.02,0.02-0.027,0.041-0.012,0.048L6.443,2.626c-0.055,0.024-0.1,0.044-0.1,0.044C6.329,2.685,6.32,2.697,6.314,2.708
					C6.008,2.869,5.556,3.155,5.669,3.143C5.747,3.122,5.946,2.976,6.202,2.86c0.021-0.005,0.04-0.01,0.055-0.014
					C5.927,3.004,6.286,2.91,6.091,3.007C5.828,3.128,5.586,3.291,5.342,3.444C4.376,4.12,3.728,4.918,3.195,5.945L3.122,6.078
					c-0.12,0.27-0.229,0.515-0.336,0.755C2.692,7.088,2.599,7.336,2.502,7.602c0.007-0.038,0.014-0.074,0.021-0.109
					C2.38,7.914,2.251,8.345,2.173,8.785c-0.211,1.076-0.271,2.175-0.311,3.341c-0.054,1.23,0.057,2.398,0.312,3.602
					c-0.141-0.484-0.183-0.988-0.268-1.498c-0.01-0.232-0.021-0.461-0.03-0.688c0.011,0.238,0.021,0.455,0.03,0.688
					c0.06,0.441,0.096,0.895,0.181,1.312c0.104,0.414,0.192,0.807,0.328,1.125c0.014,0.072,0.005,0.074,0.026,0.143
					c0.146,0.484,0.282,0.973,0.5,1.352c0.009-0.004,0.091,0.193,0.082,0.121c0.154,0.402,0.408,0.836,0.62,1.209
					c0.085,0.164,0.208,0.307,0.327,0.447c0.857,1.26,1.943,2.334,3.322,3.164c0.326,0.232,0.754,0.412,1.107,0.607
					c-0.283-0.131-0.559-0.256-0.826-0.377c-0.271-0.166-0.537-0.326-0.796-0.482c-0.477-0.381-0.936-0.738-1.294-1.062
					c-0.089-0.078-0.175-0.152-0.256-0.225c0.479,0.488,1.008,0.912,1.55,1.287c0.3,0.193,0.591,0.426,0.91,0.598l-0.021-0.01
					c-0.256-0.121-0.492-0.287-0.742-0.432c-0.455-0.299-0.836-0.662-1.202-0.928c-0.039-0.033-0.079-0.068-0.126-0.107
					c-0.089-0.076-0.174-0.15-0.256-0.223L5.8,22.185l0.497,0.383c0.201,0.16,0.406,0.314,0.63,0.439
					c0.131,0.088,0.266,0.18,0.398,0.271L7.28,23.257c-0.123-0.07-0.519-0.195-0.357-0.053c0.445,0.328,1.048,0.604,1.519,0.836
					c0.49,0.182,0.77,0.285,0.854,0.314c0.025,0.031-0.404-0.111-0.838-0.26c-0.416-0.184-0.826-0.387-0.797-0.363
					c0.098,0.057,0.189,0.107,0.277,0.156c-0.086-0.035-0.176-0.07-0.271-0.109c-0.203-0.082-0.439-0.25-0.568-0.316
					c-0.226-0.117-0.464-0.252-0.695-0.412c-0.223-0.176-0.45-0.355-0.688-0.527c-0.3-0.213-0.618-0.518-0.963-0.801
					c-0.02,0.02-0.148-0.164-0.118-0.092c-0.259-0.328-0.567-0.699-0.717-0.812L3.9,20.794C3.888,20.78,3.865,20.747,3.83,20.7
					c-0.188-0.295-0.358-0.537-0.53-0.771c-0.141-0.229-0.31-0.506-0.465-0.758c-0.113-0.189-0.201-0.395-0.286-0.607
					c0.062,0.139,0.124,0.355,0.21,0.48l0.076,0.127c0.129,0.227,0.268,0.471,0.412,0.725c0.155,0.223,0.314,0.447,0.467,0.666
					c0.031,0.035,0.08,0.096,0.116,0.139c0.02,0.031,0.041,0.062,0.062,0.1l0.026,0.02c0.346,0.381,0.687,0.852,1.027,1.129
					c0.3,0.279,0.59,0.588,0.929,0.846l0.489,0.408c0.176,0.119,0.352,0.236,0.523,0.354c-0.174-0.104-0.352-0.213-0.529-0.32
					l-0.49-0.367c0.388,0.326,0.8,0.57,1.196,0.807l0.176,0.119c-0.006,0.012,0.391,0.209,0.391,0.209
					c-0.127-0.07-0.244-0.137-0.357-0.201c0.24,0.113,0.484,0.229,0.738,0.346c1.342,0.613,2.836,0.953,4.318,1.039l-0.102,0.031
					c-0.361-0.002-0.717-0.041-1.057-0.098c-0.34-0.051-0.668-0.07-0.957-0.137c0.4,0.127,0.695,0.109,1.09,0.184
					c0,0.006,0.002,0.016-0.031,0.014c0.254,0.037,0.553,0.062,0.846,0.062l-0.311,0.061c-0.15,0.021-0.369-0.031-0.59-0.051
					c-0.246-0.035-0.479-0.068-0.709-0.102c-0.229-0.061-0.455-0.117-0.682-0.176c-0.457-0.098-0.887-0.279-1.336-0.439
					c-0.4-0.146-0.758-0.379-1.137-0.564c-0.365-0.211-0.705-0.459-1.056-0.684c0.355,0.215,0.687,0.43,1.021,0.617
					C7.669,24.067,8.005,24.231,8.341,24.374z M5.17,3.097C5.113,3.144,5.05,3.196,4.983,3.251l0.032-0.016
					C5.076,3.191,5.13,3.14,5.17,3.097z M3.823,4.279c0.34-0.401,0.86-0.868,1.411-1.259l0.001-0.009
					C4.76,3.318,4.219,3.772,3.823,4.279z M2.489,5.93l0.008-0.01L2.493,5.918L2.489,5.93z M1.578,14.97
					c-0.146-0.584-0.174-1.336-0.211-2.084c0.005-0.224-0.028-0.447-0.021-0.747c-0.006-0.373-0.007-0.599,0.01-0.898l-0.037,0.224
					c0.057-0.521,0-0.829,0.102-1.349c-0.011-0.002-0.02-0.079-0.009-0.154C1.445,9.585,1.533,9.215,1.58,8.916
					C1.635,8.54,1.734,8.173,1.802,7.874C1.823,7.8,1.835,7.645,1.867,7.495c0.062-0.184,0.121-0.357,0.181-0.533L2.033,6.981
					C1.987,7.116,1.945,7.237,1.882,7.419C1.777,7.868,1.633,8.384,1.566,8.835c-0.225,1.12-0.275,2.179-0.277,3.226
					c0.006,0.194,0.016,0.48,0.022,0.675c0.048,0.673,0.054,1.505,0.199,1.94C1.53,14.749,1.549,14.897,1.578,14.97z M2.126,15.712
					c-0.187-0.74-0.299-1.59-0.303-2.314c-0.051-0.58-0.009-2.271-0.139-1.984c0.07,0.37,0.028,1.585,0.101,2.639
					c0.039,0.525,0.123,1.008,0.172,1.328C2.031,15.696,2.098,15.845,2.126,15.712z M4.74,21.03
					c-0.195-0.225-0.401-0.43-0.576-0.723C4.33,20.569,4.542,20.794,4.74,21.03z M2.802,18.616c0.452,0.844,0.974,1.73,1.602,2.443
					c0.463,0.559,0.989,1.172,1.538,1.535l0.019-0.021l-0.062-0.039c-0.197-0.16-0.331-0.314-0.473-0.477l0.028,0.025l-0.046-0.045
					c-0.096-0.104-0.198-0.209-0.322-0.326L4.91,21.554c-0.594-0.68-1.16-1.426-1.589-2.133c-0.276-0.432-0.503-0.811-0.715-1.283
					C2.662,18.274,2.737,18.483,2.802,18.616z"/>
				<path fill="#FFFFFF" d="M7.149,23.716c0.27,0.168,0.574,0.281,0.859,0.43c0.223,0.111,0.455,0.195,0.693,0.268
					c1.096,0.416,2.449,0.721,3.711,0.732c0.037-0.025,0.043-0.057,0-0.088c-1.346-0.092-2.707-0.312-3.939-0.887l-0.029-0.008
					c-0.273-0.096-0.613-0.271-0.973-0.443c-0.305-0.184-0.589-0.355-1.013-0.609c-0.3-0.205-0.593-0.428-0.888-0.646
					c-0.262-0.236-0.512-0.463-0.818-0.742C5.482,22.499,6.261,23.155,7.149,23.716z"/>
				<path fill="#FFFFFF" d="M1.725,17.077c0.095,0.283,0.189,0.566,0.285,0.855c0.166,0.365,0.329,0.729,0.497,1.1
					c0.186,0.318,0.375,0.646,0.574,0.99c-0.256-0.494-0.552-0.977-0.746-1.51C2.094,17.999,1.909,17.556,1.725,17.077z"/>
				<path fill="#FFFFFF" d="M3.442,20.526c-0.125-0.174-0.243-0.342-0.36-0.504c0.229,0.342,0.458,0.684,0.69,1.027
					c0.266,0.314,0.515,0.643,0.793,0.941c0.925,0.98,2.047,1.768,3.26,2.32c0.143,0.068,0.277,0.133,0.406,0.193
					c-1.123-0.527-2.146-1.242-3.018-2.053c-0.888-0.799-1.556-1.74-2.149-2.613l-0.063-0.105c0.229,0.449,0.54,0.85,0.812,1.268
					c0.329,0.375,0.606,0.793,0.979,1.125c-0.263-0.23-0.479-0.506-0.708-0.771C3.844,21.097,3.638,20.815,3.442,20.526z"/>
				<polygon fill="#FFFFFF" points="6.886,23.554 7.063,23.673 7.272,23.8 7.149,23.716 				"/>
				<path fill="#FFFFFF" d="M5.426,22.058l-0.018-0.02L4.91,21.554c-0.238-0.27-0.46-0.521-0.667-0.758
					c0.196,0.234,0.39,0.467,0.591,0.705C5.037,21.714,5.247,21.897,5.426,22.058z"/>
				<path fill="#FFFFFF" d="M4.323,20.405c-0.039-0.061-0.116-0.178-0.154-0.238l-0.085-0.098l0.108,0.17L4.323,20.405z"/>
				<path fill="#FFFFFF" d="M2.417,16.667c0.367,1.225,0.91,2.299,1.555,3.27c0.036,0.043,0.073,0.086,0.112,0.133
					c-0.224-0.322-0.411-0.666-0.591-1.006c-0.199-0.328-0.354-0.672-0.514-0.996c-0.062-0.129-0.177-0.314-0.226-0.449
					c-0.219-0.645-0.435-1.256-0.579-1.893c0.077,0.303,0.142,0.609,0.233,0.914L2.417,16.667z"/>
			</g>
		</g>
	</g>
</g>
<g>
	<g>
		<g>
			<g>
				<path fill="#FFFFFF" d="M6.935,1.29c0.07-0.015,0.136-0.029,0.136-0.029L7.066,1.252L6.935,1.29z"/>
				<path fill="#FFFFFF" d="M6.835,1.436l0.041-0.013C6.871,1.422,6.869,1.42,6.865,1.418L6.835,1.436z"/>
				<path fill="#FFFFFF" d="M7.066,1.252C7.048,1.219,6.982,1.197,7.045,1.147c0.076-0.016,0.228-0.049,0.305-0.066
					c0.073-0.036-0.007-0.039-0.011-0.058C7.416,1.006,7.492,0.99,7.49,0.981C7.535,0.947,7.451,0.945,7.3,0.972
					C6.979,1.139,6.182,1.405,7.066,1.252z"/>
				<path fill="#FFFFFF" d="M6.502,1.492l0.381-0.121c0.035-0.03,0.085-0.064,0.04-0.077C6.723,1.359,6.609,1.427,6.502,1.492z"/>
				<path fill="#FFFFFF" d="M11.645,24.504c0.002-0.006,0.008-0.009,0.074,0.004L11.645,24.504c0,0.006,0.002,0.014-0.031,0.017
					c0.295,0.007,0.603,0.014,0.861,0.02l0.109-0.026c-0.359-0.015-0.709-0.027-1.078-0.043c-0.347-0.035-0.675-0.082-0.978-0.101
					C10.949,24.426,11.238,24.484,11.645,24.504z"/>
				<path fill="#FFFFFF" d="M12.641,24.457l0.074,0.004C12.649,24.448,12.643,24.45,12.641,24.457z"/>
				<path fill="#FFFFFF" d="M2.262,17.799c-0.173-0.42-0.387-0.769-0.522-1.151c0.292,0.812,0.678,1.61,1.029,2.165
					C2.602,18.477,2.392,18.156,2.262,17.799z"/>
				<path fill="#FFFFFF" d="M1.113,14.715c0.114,0.56,0.198,1.025,0.381,1.44c-0.161-0.431-0.225-0.881-0.34-1.317
					C1.14,14.797,1.129,14.758,1.113,14.715z"/>
				<path fill="#FFFFFF" d="M1.306,15.322c0.093,0.514,0.276,0.921,0.434,1.325C1.58,16.188,1.411,15.737,1.306,15.322z"/>
				<path fill="#FFFFFF" d="M7.623,22.666c0.295,0.12,0.47,0.197,0.566,0.245c0.048,0.011,0.111,0.024,0.202,0.034l-0.052-0.02
					c-0.312-0.143-0.61-0.276-0.901-0.408c-0.131-0.047-0.242-0.115-0.343-0.16C7.259,22.481,7.441,22.574,7.623,22.666z"/>
				<path fill="#FFFFFF" d="M8.189,22.911C7.773,22.83,8.575,23.092,8.189,22.911L8.189,22.911z"/>
				<polygon fill="#FFFFFF" points="6.067,22.366 6.028,22.334 5.909,22.244 				"/>
				<path fill="#FFFFFF" d="M3.518,19.176c0.165,0.235,0.314,0.482,0.494,0.699C3.679,19.4,3.324,18.928,3.09,18.499
					c0.022,0.05,0.069,0.15,0.093,0.198C3.32,18.895,3.444,19.072,3.518,19.176z"/>
				<path fill="#FFFFFF" d="M8.109,23.452c-0.351-0.165-0.712-0.335-1.082-0.509c-0.326-0.199-0.66-0.402-1-0.609
					c-1.255-0.938-2.255-2.096-3.016-3.229c-0.33-0.503-0.724-1.233-1.038-2.005c-0.308-0.771-0.556-1.563-0.742-2.147
					c0.029,0.146,0.051,0.259,0.073,0.37c-0.046-0.146-0.096-0.307-0.152-0.484c-0.42-1.988-0.354-3.974-0.088-5.998
					C1.1,8.538,1.118,8.308,1.181,8.007c0.06-0.304,0.116-0.604,0.204-0.898c0-0.002-0.004,0.001-0.007,0.008
					c0.316-1.226,0.787-2.423,1.572-3.544c0.372-0.522,0.834-0.986,1.346-1.386c0.195-0.146,0.219-0.113,0.354-0.201
					C5.214,1.665,5.658,1.471,6.34,1.257c0,0,0.006,0.019,0.01,0.028c0.116-0.038,0.179-0.058,0.273-0.088
					C6.321,1.393,5.562,1.74,6.421,1.498l0,0L6.295,1.549L6.28,1.553l0.001,0.001c-0.189,0.084-0.294,0.164-0.395,0.24l0.364-0.159
					C6.23,1.655,6.222,1.676,6.239,1.683L6.211,1.704C6.157,1.729,6.112,1.748,6.112,1.748C6.098,1.763,6.089,1.775,6.083,1.786
					C5.776,1.947,5.325,2.233,5.437,2.221C5.515,2.2,5.715,2.054,5.97,1.938c0.021-0.005,0.04-0.01,0.056-0.014
					C5.695,2.082,6.054,1.988,5.859,2.085C5.596,2.206,5.354,2.369,5.11,2.522C4.144,3.198,3.497,3.996,2.964,5.023L2.89,5.156
					c-0.12,0.27-0.229,0.515-0.336,0.755C2.461,6.166,2.368,6.414,2.27,6.68c0.007-0.038,0.014-0.074,0.021-0.109
					c-0.143,0.421-0.271,0.852-0.35,1.292C1.73,8.939,1.67,10.038,1.631,11.204c-0.054,1.229,0.057,2.397,0.312,3.603
					c-0.141-0.484-0.183-0.989-0.268-1.5c-0.01-0.232-0.021-0.461-0.03-0.688c0.011,0.239,0.021,0.456,0.03,0.688
					c0.06,0.442,0.096,0.896,0.181,1.314c0.104,0.414,0.192,0.807,0.328,1.124c0.014,0.072,0.005,0.075,0.026,0.144
					c0.146,0.483,0.282,0.973,0.5,1.351c0.009-0.004,0.091,0.194,0.082,0.121c0.154,0.403,0.408,0.837,0.62,1.209
					c0.085,0.165,0.208,0.307,0.327,0.448c0.857,1.259,1.943,2.334,3.323,3.164c0.326,0.232,0.754,0.412,1.107,0.606
					c-0.284-0.13-0.559-0.255-0.826-0.377c-0.272-0.165-0.537-0.325-0.798-0.481c-0.477-0.381-0.936-0.739-1.294-1.063
					c-0.089-0.077-0.175-0.151-0.256-0.224c0.479,0.488,1.008,0.912,1.55,1.287c0.301,0.193,0.593,0.425,0.91,0.598l-0.021-0.01
					c-0.257-0.121-0.492-0.287-0.742-0.432c-0.455-0.3-0.837-0.662-1.202-0.928c-0.039-0.033-0.079-0.068-0.126-0.107
					c-0.089-0.076-0.174-0.15-0.256-0.223l0.458,0.436l0.497,0.383c0.201,0.16,0.406,0.314,0.63,0.439
					c0.131,0.088,0.267,0.18,0.399,0.271l-0.046-0.021c-0.122-0.07-0.52-0.195-0.357-0.053c0.446,0.328,1.05,0.604,1.52,0.836
					c0.49,0.182,0.771,0.284,0.854,0.314c0.026,0.031-0.404-0.111-0.837-0.26c-0.416-0.184-0.826-0.387-0.798-0.363
					c0.098,0.056,0.189,0.106,0.278,0.156c-0.087-0.035-0.176-0.071-0.271-0.11c-0.203-0.082-0.439-0.249-0.569-0.316
					c-0.226-0.116-0.464-0.252-0.695-0.411c-0.223-0.176-0.449-0.356-0.688-0.527c-0.3-0.213-0.618-0.518-0.963-0.801
					c-0.02,0.019-0.148-0.164-0.118-0.093c-0.259-0.327-0.567-0.698-0.717-0.812l-0.018-0.024c-0.012-0.014-0.035-0.046-0.07-0.093
					c-0.188-0.296-0.358-0.537-0.53-0.771c-0.141-0.229-0.31-0.506-0.465-0.759c-0.113-0.188-0.201-0.394-0.286-0.606
					c0.062,0.138,0.124,0.354,0.21,0.479l0.076,0.127c0.129,0.228,0.268,0.472,0.412,0.726c0.155,0.222,0.314,0.447,0.467,0.666
					c0.031,0.035,0.08,0.095,0.116,0.139c0.02,0.031,0.041,0.062,0.062,0.1l0.026,0.019c0.346,0.381,0.687,0.853,1.027,1.129
					c0.3,0.28,0.59,0.588,0.929,0.846l0.489,0.409c0.176,0.119,0.352,0.236,0.523,0.354c-0.175-0.104-0.353-0.213-0.53-0.32
					l-0.489-0.367c0.389,0.326,0.8,0.57,1.197,0.807l0.176,0.118c-0.007,0.013,0.39,0.21,0.39,0.21
					c-0.126-0.07-0.243-0.137-0.356-0.201c0.24,0.113,0.484,0.228,0.737,0.346c1.342,0.613,2.837,0.953,4.319,1.039l-0.102,0.031
					c-0.361-0.002-0.718-0.041-1.058-0.099c-0.339-0.051-0.668-0.069-0.956-0.136c0.399,0.126,0.695,0.109,1.089,0.184
					c0,0.006,0.002,0.016-0.03,0.014c0.254,0.037,0.553,0.062,0.846,0.062l-0.312,0.061c-0.149,0.021-0.368-0.031-0.59-0.052
					c-0.246-0.034-0.479-0.067-0.708-0.102c-0.229-0.06-0.456-0.116-0.682-0.175c-0.458-0.099-0.887-0.28-1.337-0.439
					c-0.399-0.146-0.758-0.38-1.137-0.564c-0.365-0.211-0.705-0.459-1.056-0.684c0.354,0.215,0.688,0.43,1.021,0.617
					C7.438,23.146,7.773,23.311,8.109,23.452z M4.938,2.175c-0.057,0.047-0.12,0.099-0.187,0.154l0.032-0.016
					C4.844,2.269,4.898,2.218,4.938,2.175z M3.592,3.357c0.34-0.401,0.86-0.868,1.411-1.259l0.001-0.009
					C4.528,2.396,3.988,2.85,3.592,3.357z M2.258,5.008l0.008-0.01L2.261,4.996L2.258,5.008z M1.346,14.047
					c-0.146-0.584-0.174-1.336-0.211-2.083c0.005-0.224-0.028-0.447-0.021-0.747c-0.006-0.373-0.007-0.599,0.01-0.898l-0.037,0.224
					c0.057-0.521,0-0.829,0.102-1.349c-0.011-0.002-0.02-0.079-0.009-0.154c0.034-0.376,0.122-0.746,0.169-1.045
					C1.404,7.618,1.503,7.251,1.57,6.952c0.021-0.074,0.033-0.229,0.065-0.379C1.697,6.389,1.757,6.216,1.816,6.04L1.802,6.059
					C1.756,6.194,1.714,6.315,1.65,6.497C1.546,6.946,1.401,7.462,1.335,7.913c-0.225,1.12-0.275,2.179-0.277,3.226
					c0.006,0.194,0.016,0.48,0.022,0.675c0.048,0.673,0.054,1.505,0.199,1.939C1.299,13.826,1.317,13.975,1.346,14.047z
					 M1.894,14.79c-0.187-0.741-0.299-1.591-0.303-2.315c-0.051-0.579-0.009-2.271-0.139-1.983c0.07,0.37,0.028,1.585,0.101,2.638
					c0.039,0.525,0.123,1.01,0.172,1.329C1.8,14.774,1.867,14.924,1.894,14.79z M4.509,20.109c-0.195-0.225-0.401-0.43-0.576-0.723
					C4.098,19.648,4.31,19.873,4.509,20.109z M2.57,17.694c0.452,0.844,0.974,1.731,1.602,2.444
					c0.463,0.559,0.989,1.172,1.538,1.535l0.019-0.022l-0.062-0.038c-0.197-0.16-0.331-0.314-0.473-0.477l0.028,0.025l-0.046-0.045
					c-0.096-0.104-0.198-0.21-0.322-0.326l-0.176-0.158c-0.594-0.68-1.16-1.426-1.589-2.134c-0.276-0.432-0.503-0.811-0.715-1.282
					C2.43,17.354,2.506,17.562,2.57,17.694z"/>
				<path fill="#FFFFFF" d="M6.919,22.795c0.27,0.168,0.573,0.281,0.859,0.43c0.223,0.111,0.455,0.195,0.692,0.267
					c1.097,0.417,2.449,0.722,3.711,0.733c0.037-0.026,0.043-0.057,0-0.088c-1.346-0.092-2.707-0.312-3.938-0.888l-0.03-0.008
					C7.939,23.146,7.6,22.971,7.24,22.799c-0.304-0.185-0.59-0.355-1.013-0.61c-0.301-0.205-0.594-0.427-0.889-0.646
					c-0.262-0.236-0.512-0.464-0.818-0.742C5.251,21.578,6.03,22.233,6.919,22.795z"/>
				<path fill="#FFFFFF" d="M1.494,16.156c0.095,0.282,0.189,0.566,0.285,0.855c0.166,0.364,0.329,0.728,0.497,1.099
					c0.186,0.319,0.375,0.647,0.574,0.991c-0.256-0.495-0.552-0.978-0.746-1.51C1.862,17.078,1.677,16.635,1.494,16.156z"/>
				<path fill="#FFFFFF" d="M3.211,19.604c-0.125-0.173-0.243-0.341-0.36-0.503c0.229,0.341,0.458,0.684,0.69,1.027
					c0.266,0.314,0.515,0.643,0.793,0.941c0.925,0.98,2.048,1.768,3.26,2.32c0.144,0.067,0.278,0.133,0.407,0.193
					c-1.124-0.527-2.146-1.242-3.019-2.053c-0.888-0.8-1.556-1.74-2.149-2.614l-0.063-0.104c0.229,0.449,0.54,0.849,0.812,1.267
					c0.329,0.375,0.606,0.793,0.979,1.126c-0.263-0.23-0.479-0.507-0.708-0.771C3.613,20.176,3.407,19.895,3.211,19.604z"/>
				<polygon fill="#FFFFFF" points="6.655,22.633 6.833,22.751 7.042,22.879 6.919,22.795 				"/>
				<path fill="#FFFFFF" d="M5.194,21.137l-0.018-0.02l-0.498-0.484c-0.238-0.271-0.46-0.521-0.667-0.758
					c0.196,0.234,0.39,0.467,0.591,0.705C4.805,20.793,5.015,20.977,5.194,21.137z"/>
				<path fill="#FFFFFF" d="M4.092,19.483c-0.039-0.06-0.116-0.177-0.154-0.237l-0.085-0.098l0.108,0.169L4.092,19.483z"/>
				<path fill="#FFFFFF" d="M2.185,15.745c0.367,1.226,0.91,2.3,1.555,3.271c0.036,0.043,0.073,0.086,0.112,0.132
					c-0.224-0.322-0.411-0.665-0.591-1.005c-0.199-0.328-0.354-0.672-0.514-0.996c-0.062-0.129-0.177-0.315-0.226-0.45
					c-0.219-0.644-0.435-1.255-0.579-1.892c0.077,0.302,0.142,0.608,0.233,0.914L2.185,15.745z"/>
			</g>
		</g>
	</g>
</g>
<g>
	<g>
		<g>
			<g>
				<path fill="#FFFFFF" d="M7.683,1.286c0.07-0.015,0.135-0.029,0.135-0.029L7.814,1.248L7.683,1.286z"/>
				<path fill="#FFFFFF" d="M7.582,1.432l0.041-0.013c-0.004-0.001-0.006-0.003-0.01-0.005L7.582,1.432z"/>
				<path fill="#FFFFFF" d="M7.814,1.248C7.795,1.215,7.73,1.193,7.793,1.143c0.076-0.016,0.227-0.049,0.305-0.066
					C8.17,1.041,8.09,1.038,8.086,1.019C8.164,1.002,8.24,0.986,8.238,0.977c0.045-0.034-0.039-0.036-0.191-0.009
					C7.726,1.135,6.929,1.401,7.814,1.248z"/>
				<path fill="#FFFFFF" d="M7.25,1.488l0.381-0.121C7.666,1.337,7.715,1.303,7.67,1.29C7.47,1.355,7.357,1.423,7.25,1.488z"/>
				<path fill="#FFFFFF" d="M12.392,24.499c0.002-0.006,0.008-0.008,0.074,0.004L12.392,24.499c0,0.006,0.002,0.014-0.031,0.018
					c0.295,0.006,0.604,0.014,0.861,0.02l0.109-0.027c-0.359-0.014-0.709-0.027-1.078-0.043c-0.346-0.035-0.674-0.082-0.977-0.1
					C11.697,24.421,11.986,24.479,12.392,24.499z"/>
				<path fill="#FFFFFF" d="M13.388,24.452l0.074,0.004C13.396,24.444,13.39,24.446,13.388,24.452z"/>
				<path fill="#FFFFFF" d="M3.01,17.794c-0.173-0.42-0.387-0.768-0.522-1.15c0.292,0.811,0.678,1.609,1.029,2.164
					C3.35,18.472,3.14,18.151,3.01,17.794z"/>
				<path fill="#FFFFFF" d="M1.861,14.71c0.114,0.561,0.198,1.025,0.381,1.441c-0.161-0.432-0.225-0.881-0.34-1.318
					C1.888,14.792,1.876,14.753,1.861,14.71z"/>
				<path fill="#FFFFFF" d="M2.054,15.317c0.093,0.514,0.276,0.922,0.434,1.326C2.327,16.183,2.158,15.733,2.054,15.317z"/>
				<path fill="#FFFFFF" d="M8.371,22.661c0.295,0.121,0.469,0.197,0.566,0.246c0.047,0.01,0.111,0.023,0.201,0.033l-0.051-0.02
					c-0.312-0.143-0.611-0.275-0.902-0.408c-0.131-0.047-0.242-0.115-0.342-0.16C8.006,22.478,8.189,22.569,8.371,22.661z"/>
				<path fill="#FFFFFF" d="M8.937,22.907C8.521,22.825,9.322,23.087,8.937,22.907L8.937,22.907z"/>
				<polygon fill="#FFFFFF" points="6.814,22.362 6.775,22.329 6.656,22.239 				"/>
				<path fill="#FFFFFF" d="M4.266,19.171c0.165,0.236,0.314,0.482,0.494,0.699c-0.333-0.475-0.688-0.947-0.923-1.375
					c0.022,0.049,0.069,0.15,0.093,0.197C4.068,18.89,4.192,19.067,4.266,19.171z"/>
				<path fill="#FFFFFF" d="M8.857,23.448c-0.352-0.166-0.713-0.336-1.082-0.51c-0.326-0.199-0.66-0.402-1-0.609
					c-1.255-0.938-2.255-2.096-3.016-3.229c-0.33-0.504-0.724-1.234-1.038-2.006c-0.308-0.77-0.556-1.562-0.742-2.146
					c0.029,0.145,0.051,0.258,0.073,0.369c-0.046-0.146-0.096-0.307-0.152-0.484c-0.42-1.987-0.354-3.973-0.088-5.997
					c0.036-0.302,0.054-0.532,0.117-0.833c0.06-0.304,0.116-0.604,0.204-0.898c0-0.002-0.004,0.001-0.007,0.008
					C2.443,5.887,2.913,4.69,3.698,3.569c0.372-0.522,0.834-0.986,1.346-1.386C5.24,2.038,5.263,2.07,5.399,1.982
					c0.562-0.321,1.007-0.515,1.689-0.729c0,0,0.006,0.019,0.01,0.028c0.115-0.038,0.178-0.058,0.273-0.088
					C7.068,1.389,6.31,1.736,7.168,1.494l0,0L7.043,1.545L7.027,1.549L7.029,1.55C6.84,1.634,6.735,1.714,6.634,1.79l0.364-0.159
					c-0.02,0.02-0.027,0.041-0.012,0.048L6.959,1.7c-0.055,0.024-0.1,0.044-0.1,0.044C6.845,1.759,6.836,1.771,6.83,1.782
					C6.524,1.943,6.073,2.229,6.185,2.217C6.263,2.196,6.462,2.05,6.718,1.934c0.021-0.005,0.04-0.01,0.055-0.014
					C6.443,2.078,6.802,1.984,6.607,2.081C6.344,2.202,6.102,2.365,5.858,2.518C4.892,3.194,4.244,3.992,3.711,5.019L3.638,5.152
					c-0.12,0.27-0.229,0.515-0.336,0.755C3.208,6.162,3.115,6.41,3.018,6.676c0.007-0.038,0.014-0.074,0.021-0.109
					c-0.143,0.421-0.271,0.852-0.35,1.292C2.478,8.935,2.417,10.034,2.378,11.2c-0.054,1.23,0.057,2.398,0.312,3.602
					c-0.141-0.484-0.183-0.989-0.268-1.499c-0.01-0.232-0.021-0.461-0.03-0.688c0.011,0.238,0.021,0.455,0.03,0.688
					c0.06,0.441,0.096,0.896,0.181,1.313c0.104,0.414,0.192,0.807,0.328,1.125c0.014,0.072,0.005,0.074,0.026,0.143
					c0.146,0.484,0.282,0.973,0.5,1.352c0.009-0.004,0.091,0.193,0.082,0.121c0.154,0.402,0.408,0.836,0.62,1.209
					c0.085,0.164,0.208,0.307,0.327,0.447c0.857,1.26,1.943,2.334,3.323,3.164c0.326,0.232,0.754,0.412,1.107,0.607
					c-0.283-0.131-0.559-0.256-0.826-0.377c-0.271-0.166-0.537-0.326-0.797-0.482C6.818,21.544,6.359,21.187,6,20.862
					c-0.089-0.078-0.175-0.152-0.256-0.225c0.479,0.488,1.008,0.912,1.55,1.287c0.301,0.193,0.592,0.426,0.91,0.598l-0.021-0.01
					c-0.256-0.121-0.492-0.287-0.742-0.432c-0.455-0.299-0.836-0.662-1.202-0.928C6.2,21.12,6.16,21.085,6.114,21.046
					c-0.089-0.076-0.174-0.15-0.256-0.223l0.458,0.436l0.497,0.383c0.201,0.16,0.406,0.314,0.631,0.439
					c0.131,0.088,0.266,0.18,0.398,0.271l-0.045-0.021c-0.123-0.07-0.52-0.195-0.357-0.053c0.445,0.328,1.049,0.604,1.52,0.836
					c0.49,0.182,0.77,0.285,0.854,0.314c0.025,0.031-0.404-0.111-0.838-0.26c-0.416-0.184-0.826-0.387-0.797-0.363
					c0.098,0.057,0.189,0.107,0.277,0.156c-0.086-0.035-0.176-0.07-0.271-0.109c-0.203-0.082-0.439-0.25-0.568-0.316
					c-0.227-0.117-0.465-0.252-0.695-0.412c-0.223-0.176-0.45-0.355-0.688-0.527c-0.3-0.213-0.618-0.518-0.963-0.801
					c-0.02,0.02-0.148-0.164-0.118-0.092c-0.259-0.328-0.567-0.699-0.717-0.812l-0.018-0.023c-0.012-0.014-0.035-0.047-0.07-0.094
					c-0.188-0.295-0.358-0.537-0.53-0.771c-0.141-0.229-0.31-0.506-0.465-0.758c-0.113-0.189-0.201-0.395-0.286-0.607
					c0.062,0.139,0.124,0.355,0.21,0.48l0.076,0.127c0.129,0.227,0.268,0.471,0.412,0.725c0.155,0.223,0.314,0.447,0.467,0.666
					c0.031,0.035,0.08,0.096,0.116,0.139c0.02,0.031,0.041,0.062,0.062,0.1l0.026,0.02c0.346,0.381,0.687,0.852,1.027,1.129
					c0.3,0.279,0.59,0.588,0.929,0.846l0.489,0.408c0.176,0.119,0.352,0.236,0.523,0.354c-0.174-0.104-0.352-0.213-0.529-0.32
					l-0.49-0.367c0.388,0.326,0.8,0.57,1.197,0.807l0.176,0.119c-0.006,0.012,0.391,0.209,0.391,0.209
					c-0.127-0.07-0.244-0.137-0.357-0.201c0.24,0.113,0.484,0.229,0.738,0.346c1.342,0.613,2.836,0.953,4.318,1.039l-0.102,0.031
					c-0.361-0.002-0.717-0.041-1.057-0.098c-0.34-0.051-0.668-0.07-0.957-0.137c0.4,0.127,0.695,0.109,1.09,0.184
					c0,0.006,0.002,0.016-0.031,0.014c0.254,0.037,0.553,0.062,0.846,0.062l-0.311,0.061c-0.15,0.021-0.369-0.031-0.59-0.051
					c-0.246-0.035-0.479-0.068-0.709-0.102c-0.229-0.061-0.455-0.117-0.682-0.176c-0.457-0.098-0.887-0.279-1.336-0.439
					c-0.4-0.146-0.758-0.379-1.137-0.564c-0.365-0.211-0.705-0.459-1.057-0.684c0.355,0.215,0.688,0.43,1.021,0.617
					C8.185,23.142,8.521,23.306,8.857,23.448z M5.686,2.171C5.629,2.218,5.566,2.27,5.499,2.325l0.032-0.016
					C5.592,2.265,5.646,2.214,5.686,2.171z M4.339,3.353c0.34-0.401,0.86-0.868,1.411-1.259l0.001-0.009
					C5.276,2.392,4.736,2.846,4.339,3.353z M3.005,5.004l0.008-0.01L3.009,4.992L3.005,5.004z M2.094,14.043
					c-0.146-0.584-0.174-1.336-0.211-2.084c0.005-0.224-0.028-0.447-0.021-0.747c-0.006-0.373-0.007-0.599,0.01-0.898l-0.037,0.224
					c0.057-0.521,0-0.829,0.102-1.349C1.925,9.187,1.916,9.11,1.927,9.035C1.961,8.659,2.049,8.289,2.096,7.99
					C2.152,7.614,2.25,7.247,2.318,6.948c0.021-0.074,0.033-0.229,0.065-0.379c0.062-0.184,0.121-0.357,0.181-0.533L2.549,6.055
					C2.503,6.19,2.461,6.311,2.398,6.493C2.293,6.942,2.149,7.458,2.082,7.909c-0.225,1.12-0.275,2.179-0.277,3.226
					c0.006,0.194,0.016,0.48,0.022,0.675c0.048,0.672,0.054,1.504,0.199,1.94C2.046,13.822,2.065,13.971,2.094,14.043z
					 M2.642,14.786c-0.187-0.741-0.299-1.591-0.303-2.315C2.288,11.891,2.33,10.2,2.2,10.487c0.07,0.37,0.028,1.585,0.101,2.638
					c0.039,0.525,0.123,1.009,0.172,1.329C2.547,14.771,2.615,14.919,2.642,14.786z M5.256,20.104
					c-0.195-0.225-0.401-0.43-0.576-0.723C4.846,19.644,5.058,19.868,5.256,20.104z M3.318,17.69
					c0.452,0.844,0.974,1.73,1.602,2.443c0.463,0.559,0.989,1.172,1.538,1.535l0.019-0.021l-0.062-0.039
					c-0.197-0.16-0.331-0.314-0.473-0.477l0.028,0.025l-0.046-0.045c-0.096-0.104-0.198-0.209-0.322-0.326l-0.176-0.158
					c-0.594-0.68-1.16-1.426-1.589-2.133c-0.276-0.432-0.503-0.811-0.715-1.283C3.178,17.349,3.253,17.558,3.318,17.69z"/>
				<path fill="#FFFFFF" d="M7.666,22.79c0.27,0.168,0.574,0.281,0.859,0.43c0.223,0.111,0.455,0.195,0.693,0.268
					c1.096,0.416,2.449,0.721,3.711,0.732c0.037-0.025,0.043-0.057,0-0.088c-1.346-0.092-2.707-0.312-3.939-0.887l-0.029-0.008
					c-0.273-0.096-0.613-0.271-0.973-0.443c-0.305-0.184-0.59-0.355-1.014-0.609c-0.3-0.205-0.593-0.428-0.888-0.646
					c-0.262-0.236-0.512-0.463-0.818-0.742C5.998,21.573,6.777,22.229,7.666,22.79z"/>
				<path fill="#FFFFFF" d="M2.241,16.151c0.095,0.283,0.189,0.566,0.285,0.855c0.166,0.365,0.329,0.729,0.497,1.1
					c0.186,0.318,0.375,0.646,0.574,0.99c-0.256-0.494-0.552-0.977-0.746-1.51C2.61,17.073,2.425,16.63,2.241,16.151z"/>
				<path fill="#FFFFFF" d="M3.958,19.601c-0.125-0.174-0.243-0.342-0.36-0.504c0.229,0.342,0.458,0.684,0.69,1.027
					c0.266,0.314,0.515,0.643,0.793,0.941c0.925,0.98,2.047,1.768,3.26,2.32c0.143,0.068,0.277,0.133,0.406,0.193
					c-1.123-0.527-2.146-1.242-3.018-2.053c-0.888-0.799-1.556-1.74-2.149-2.613l-0.063-0.105c0.229,0.449,0.54,0.85,0.812,1.268
					c0.329,0.375,0.606,0.793,0.979,1.125c-0.263-0.23-0.479-0.506-0.708-0.771C4.361,20.171,4.155,19.89,3.958,19.601z"/>
				<polygon fill="#FFFFFF" points="7.402,22.628 7.58,22.747 7.789,22.874 7.666,22.79 				"/>
				<path fill="#FFFFFF" d="M5.942,21.132l-0.018-0.02l-0.498-0.484c-0.238-0.27-0.46-0.521-0.667-0.758
					c0.196,0.234,0.39,0.467,0.591,0.705C5.553,20.788,5.763,20.972,5.942,21.132z"/>
				<path fill="#FFFFFF" d="M4.839,19.479c-0.039-0.061-0.116-0.178-0.154-0.238L4.6,19.144l0.108,0.17L4.839,19.479z"/>
				<path fill="#FFFFFF" d="M2.933,15.741c0.367,1.225,0.91,2.299,1.555,3.27c0.036,0.043,0.073,0.086,0.112,0.133
					c-0.224-0.322-0.411-0.666-0.591-1.006c-0.199-0.328-0.354-0.672-0.514-0.996c-0.062-0.129-0.177-0.314-0.226-0.449
					c-0.219-0.645-0.435-1.256-0.579-1.893c0.077,0.303,0.142,0.609,0.233,0.914L2.933,15.741z"/>
			</g>
		</g>
	</g>
</g>
<g>
	<g>
		<g>
			<g>
				<path fill="#FFFFFF" d="M7.841,1.014C7.911,1,7.975,0.985,7.975,0.985L7.971,0.977L7.841,1.014z"/>
				<path fill="#FFFFFF" d="M7.739,1.16L7.78,1.147C7.776,1.146,7.774,1.145,7.77,1.142L7.739,1.16z"/>
				<path fill="#FFFFFF" d="M7.971,0.977C7.952,0.943,7.887,0.921,7.95,0.872c0.076-0.016,0.227-0.049,0.305-0.066
					C8.327,0.77,8.247,0.766,8.243,0.748C8.321,0.73,8.397,0.714,8.395,0.706C8.44,0.671,8.356,0.669,8.204,0.696
					C7.884,0.863,7.087,1.129,7.971,0.977z"/>
				<path fill="#FFFFFF" d="M7.407,1.216l0.381-0.121c0.035-0.03,0.084-0.064,0.039-0.077C7.628,1.083,7.514,1.151,7.407,1.216z"/>
				<path fill="#FFFFFF" d="M12.55,24.228c0.002-0.006,0.008-0.008,0.074,0.004L12.55,24.228c0,0.006,0.002,0.014-0.031,0.018
					c0.295,0.006,0.604,0.014,0.861,0.02l0.109-0.027c-0.359-0.014-0.709-0.027-1.078-0.043c-0.346-0.035-0.674-0.082-0.977-0.1
					C11.854,24.149,12.143,24.208,12.55,24.228z"/>
				<path fill="#FFFFFF" d="M13.546,24.181l0.074,0.004C13.553,24.173,13.548,24.175,13.546,24.181z"/>
				<path fill="#FFFFFF" d="M3.167,17.522c-0.173-0.42-0.387-0.768-0.522-1.15c0.292,0.811,0.678,1.609,1.029,2.164
					C3.507,18.2,3.297,17.88,3.167,17.522z"/>
				<path fill="#FFFFFF" d="M2.018,14.438c0.114,0.561,0.198,1.025,0.381,1.441c-0.161-0.432-0.225-0.881-0.34-1.318
					C2.045,14.521,2.033,14.481,2.018,14.438z"/>
				<path fill="#FFFFFF" d="M2.211,15.046c0.093,0.514,0.276,0.922,0.434,1.326C2.485,15.911,2.316,15.462,2.211,15.046z"/>
				<path fill="#FFFFFF" d="M8.528,22.39c0.295,0.121,0.469,0.197,0.566,0.246c0.047,0.01,0.111,0.023,0.201,0.033l-0.051-0.02
					c-0.312-0.143-0.611-0.275-0.902-0.408c-0.131-0.047-0.242-0.115-0.342-0.16C8.163,22.206,8.346,22.298,8.528,22.39z"/>
				<path fill="#FFFFFF" d="M9.094,22.636C8.678,22.554,9.479,22.815,9.094,22.636L9.094,22.636z"/>
				<polygon fill="#FFFFFF" points="6.971,22.091 6.932,22.058 6.814,21.968 				"/>
				<path fill="#FFFFFF" d="M4.423,18.899c0.165,0.236,0.314,0.482,0.494,0.699c-0.333-0.475-0.688-0.947-0.923-1.375
					c0.022,0.049,0.069,0.15,0.093,0.197C4.225,18.618,4.349,18.796,4.423,18.899z"/>
				<path fill="#FFFFFF" d="M9.014,23.177c-0.352-0.166-0.713-0.336-1.082-0.51c-0.326-0.199-0.66-0.402-1-0.609
					c-1.255-0.938-2.255-2.096-3.016-3.229c-0.33-0.504-0.724-1.234-1.038-2.006c-0.308-0.77-0.556-1.562-0.742-2.146
					c0.029,0.145,0.051,0.258,0.073,0.369c-0.046-0.146-0.096-0.307-0.152-0.484c-0.42-1.987-0.354-3.973-0.088-5.997
					c0.036-0.302,0.054-0.532,0.117-0.833c0.06-0.304,0.116-0.604,0.204-0.898c0-0.002-0.004,0.001-0.007,0.008
					C2.6,5.615,3.071,4.418,3.856,3.297C4.228,2.775,4.69,2.312,5.201,1.912C5.397,1.766,5.42,1.798,5.556,1.71
					c0.562-0.321,1.007-0.515,1.689-0.729c0,0,0.006,0.019,0.01,0.028C7.37,0.971,7.432,0.951,7.528,0.921
					C7.225,1.117,6.467,1.464,7.325,1.222l0,0L7.2,1.273L7.184,1.277l0.002,0.001c-0.189,0.084-0.294,0.164-0.395,0.24l0.364-0.159
					C7.135,1.379,7.128,1.4,7.143,1.407L7.116,1.428c-0.055,0.024-0.1,0.044-0.1,0.044C7.003,1.487,6.993,1.5,6.987,1.51
					C6.681,1.671,6.23,1.958,6.342,1.945C6.42,1.924,6.619,1.778,6.875,1.663c0.021-0.005,0.04-0.01,0.055-0.014
					C6.6,1.806,6.96,1.712,6.764,1.81C6.501,1.93,6.259,2.093,6.015,2.247C5.049,2.922,4.402,3.72,3.868,4.748L3.795,4.88
					c-0.12,0.27-0.229,0.515-0.336,0.755C3.365,5.89,3.273,6.138,3.175,6.404c0.007-0.038,0.014-0.074,0.021-0.109
					c-0.143,0.421-0.271,0.852-0.35,1.292c-0.211,1.076-0.271,2.175-0.311,3.341c-0.054,1.23,0.057,2.398,0.312,3.602
					c-0.141-0.484-0.183-0.989-0.268-1.499c-0.01-0.232-0.021-0.461-0.03-0.688c0.011,0.238,0.021,0.455,0.03,0.688
					c0.06,0.441,0.096,0.896,0.181,1.313c0.104,0.414,0.192,0.807,0.328,1.125c0.014,0.072,0.005,0.074,0.026,0.143
					c0.146,0.484,0.282,0.973,0.5,1.352c0.009-0.004,0.091,0.193,0.082,0.121c0.154,0.402,0.408,0.836,0.62,1.209
					c0.085,0.164,0.208,0.307,0.327,0.447c0.857,1.26,1.943,2.334,3.323,3.164c0.326,0.232,0.754,0.412,1.107,0.607
					c-0.283-0.131-0.559-0.256-0.826-0.377c-0.271-0.166-0.537-0.326-0.797-0.482c-0.477-0.381-0.936-0.738-1.294-1.062
					c-0.089-0.078-0.175-0.152-0.256-0.225c0.479,0.488,1.008,0.912,1.55,1.287c0.301,0.193,0.592,0.426,0.91,0.598l-0.021-0.01
					c-0.256-0.121-0.492-0.287-0.742-0.432c-0.455-0.299-0.836-0.662-1.202-0.928c-0.039-0.033-0.079-0.068-0.126-0.107
					c-0.089-0.076-0.174-0.15-0.256-0.223l0.458,0.436l0.497,0.383c0.201,0.16,0.406,0.314,0.631,0.439
					c0.131,0.088,0.266,0.18,0.398,0.271L7.954,22.06c-0.123-0.07-0.52-0.195-0.357-0.053c0.445,0.328,1.049,0.604,1.52,0.836
					c0.49,0.182,0.77,0.285,0.854,0.314c0.025,0.031-0.404-0.111-0.838-0.26c-0.416-0.184-0.826-0.387-0.797-0.363
					c0.098,0.057,0.189,0.107,0.277,0.156c-0.086-0.035-0.176-0.07-0.271-0.109c-0.203-0.082-0.439-0.25-0.568-0.316
					c-0.227-0.117-0.465-0.252-0.695-0.412c-0.223-0.176-0.45-0.355-0.688-0.527c-0.3-0.213-0.618-0.518-0.963-0.801
					c-0.02,0.02-0.148-0.164-0.118-0.092c-0.259-0.328-0.567-0.699-0.717-0.812l-0.018-0.023c-0.012-0.014-0.035-0.047-0.07-0.094
					c-0.188-0.295-0.358-0.537-0.53-0.771c-0.141-0.229-0.31-0.506-0.465-0.758c-0.113-0.189-0.201-0.395-0.286-0.607
					c0.062,0.139,0.124,0.355,0.21,0.48l0.076,0.127c0.129,0.227,0.268,0.471,0.412,0.725c0.155,0.223,0.314,0.447,0.467,0.666
					c0.031,0.035,0.08,0.096,0.116,0.139c0.02,0.031,0.041,0.062,0.062,0.1l0.026,0.02c0.346,0.381,0.687,0.852,1.027,1.129
					c0.3,0.279,0.59,0.588,0.929,0.846l0.489,0.408c0.176,0.119,0.352,0.236,0.523,0.354c-0.174-0.104-0.352-0.213-0.529-0.32
					l-0.49-0.367c0.388,0.326,0.8,0.57,1.197,0.807l0.176,0.119c-0.006,0.012,0.391,0.209,0.391,0.209
					c-0.127-0.07-0.244-0.137-0.357-0.201c0.24,0.113,0.484,0.229,0.738,0.346c1.342,0.613,2.836,0.953,4.318,1.039l-0.102,0.031
					c-0.361-0.002-0.717-0.041-1.057-0.098c-0.34-0.051-0.668-0.07-0.957-0.137c0.4,0.127,0.695,0.109,1.09,0.184
					c0,0.006,0.002,0.016-0.031,0.014c0.254,0.037,0.553,0.062,0.846,0.062l-0.311,0.061c-0.15,0.021-0.369-0.031-0.59-0.051
					c-0.246-0.035-0.479-0.068-0.709-0.102c-0.229-0.061-0.455-0.117-0.682-0.176c-0.457-0.098-0.887-0.279-1.336-0.439
					c-0.4-0.146-0.758-0.379-1.137-0.564c-0.365-0.211-0.705-0.459-1.057-0.684c0.355,0.215,0.688,0.43,1.021,0.617
					C8.343,22.87,8.678,23.034,9.014,23.177z M5.843,1.899c-0.057,0.047-0.12,0.099-0.187,0.154l0.032-0.016
					C5.749,1.993,5.803,1.942,5.843,1.899z M4.496,3.082c0.34-0.401,0.86-0.868,1.411-1.259l0.001-0.009
					C5.433,2.121,4.893,2.574,4.496,3.082z M3.162,4.732l0.008-0.01L3.166,4.72L3.162,4.732z M2.251,13.771
					c-0.146-0.584-0.174-1.336-0.211-2.084c0.005-0.224-0.028-0.447-0.021-0.747c-0.006-0.373-0.007-0.599,0.01-0.898l-0.037,0.224
					c0.057-0.521,0-0.829,0.102-1.349c-0.011-0.002-0.02-0.079-0.009-0.154c0.034-0.376,0.122-0.746,0.169-1.045
					c0.056-0.376,0.154-0.743,0.222-1.042C2.496,6.603,2.508,6.447,2.54,6.297C2.602,6.113,2.661,5.94,2.721,5.764L2.706,5.783
					C2.66,5.918,2.618,6.04,2.555,6.221C2.45,6.67,2.306,7.187,2.24,7.637c-0.225,1.12-0.275,2.179-0.277,3.226
					c0.006,0.194,0.016,0.48,0.022,0.675c0.048,0.672,0.054,1.504,0.199,1.94C2.203,13.551,2.222,13.699,2.251,13.771z
					 M2.799,14.515c-0.187-0.741-0.299-1.591-0.303-2.315c-0.051-0.58-0.009-2.271-0.139-1.984c0.07,0.37,0.028,1.585,0.101,2.638
					c0.039,0.525,0.123,1.009,0.172,1.329C2.704,14.499,2.772,14.647,2.799,14.515z M5.413,19.833
					c-0.195-0.225-0.401-0.43-0.576-0.723C5.003,19.372,5.215,19.597,5.413,19.833z M3.475,17.419
					c0.452,0.844,0.974,1.73,1.602,2.443c0.463,0.559,0.989,1.172,1.538,1.535l0.019-0.021l-0.062-0.039
					c-0.197-0.16-0.331-0.314-0.473-0.477l0.028,0.025l-0.046-0.045c-0.096-0.104-0.198-0.209-0.322-0.326l-0.176-0.158
					c-0.594-0.68-1.16-1.426-1.589-2.133c-0.276-0.432-0.503-0.811-0.715-1.283C3.335,17.077,3.41,17.286,3.475,17.419z"/>
				<path fill="#FFFFFF" d="M7.823,22.519c0.27,0.168,0.574,0.281,0.859,0.43c0.223,0.111,0.455,0.195,0.693,0.268
					c1.096,0.416,2.449,0.721,3.711,0.732c0.037-0.025,0.043-0.057,0-0.088c-1.346-0.092-2.707-0.312-3.939-0.887l-0.029-0.008
					c-0.273-0.096-0.613-0.271-0.973-0.443c-0.305-0.184-0.59-0.355-1.014-0.609c-0.3-0.205-0.593-0.428-0.888-0.646
					c-0.262-0.236-0.512-0.463-0.818-0.742C6.156,21.302,6.934,21.958,7.823,22.519z"/>
				<path fill="#FFFFFF" d="M2.399,15.88c0.095,0.283,0.189,0.566,0.285,0.855c0.166,0.365,0.329,0.729,0.497,1.1
					c0.186,0.318,0.375,0.646,0.574,0.99c-0.256-0.494-0.552-0.977-0.746-1.51C2.767,16.802,2.582,16.358,2.399,15.88z"/>
				<path fill="#FFFFFF" d="M4.115,19.329c-0.125-0.174-0.243-0.342-0.36-0.504c0.229,0.342,0.458,0.684,0.69,1.027
					c0.266,0.314,0.515,0.643,0.793,0.941c0.925,0.98,2.047,1.768,3.26,2.32c0.143,0.068,0.277,0.133,0.406,0.193
					c-1.123-0.527-2.146-1.242-3.018-2.053c-0.888-0.799-1.556-1.74-2.149-2.613l-0.063-0.105c0.229,0.449,0.54,0.85,0.812,1.268
					c0.329,0.375,0.606,0.793,0.979,1.125c-0.263-0.23-0.479-0.506-0.708-0.771C4.518,19.899,4.312,19.618,4.115,19.329z"/>
				<polygon fill="#FFFFFF" points="7.559,22.356 7.737,22.476 7.946,22.603 7.823,22.519 				"/>
				<path fill="#FFFFFF" d="M6.099,20.86l-0.018-0.02l-0.498-0.484c-0.238-0.27-0.46-0.521-0.667-0.758
					c0.196,0.234,0.39,0.467,0.591,0.705C5.71,20.517,5.92,20.7,6.099,20.86z"/>
				<path fill="#FFFFFF" d="M4.996,19.208C4.957,19.147,4.88,19.03,4.842,18.97l-0.085-0.098l0.108,0.17L4.996,19.208z"/>
				<path fill="#FFFFFF" d="M3.09,15.47c0.367,1.225,0.91,2.299,1.555,3.27c0.036,0.043,0.073,0.086,0.112,0.133
					c-0.224-0.322-0.411-0.666-0.591-1.006c-0.199-0.328-0.354-0.672-0.514-0.996c-0.062-0.129-0.177-0.314-0.226-0.449
					c-0.219-0.645-0.435-1.256-0.579-1.893c0.077,0.303,0.142,0.609,0.233,0.914L3.09,15.47z"/>
			</g>
		</g>
	</g>
</g>
<g>
	<g>
		<g>
			<g>
				<path fill="#FFFFFF" d="M7.776,1.41c0.07-0.015,0.135-0.029,0.135-0.029L7.907,1.373L7.776,1.41z"/>
				<path fill="#FFFFFF" d="M7.675,1.556l0.041-0.013C7.712,1.542,7.71,1.541,7.706,1.538L7.675,1.556z"/>
				<path fill="#FFFFFF" d="M7.907,1.373c-0.02-0.033-0.084-0.055-0.021-0.105C7.962,1.251,8.112,1.218,8.19,1.201
					c0.072-0.036-0.008-0.039-0.012-0.058C8.257,1.126,8.333,1.11,8.331,1.102c0.045-0.034-0.039-0.036-0.191-0.009
					C7.819,1.259,7.022,1.525,7.907,1.373z"/>
				<path fill="#FFFFFF" d="M7.343,1.612l0.381-0.121c0.035-0.03,0.084-0.064,0.039-0.077C7.563,1.479,7.45,1.547,7.343,1.612z"/>
				<path fill="#FFFFFF" d="M12.485,24.623c0.002-0.006,0.008-0.008,0.074,0.004L12.485,24.623c0,0.006,0.002,0.014-0.031,0.018
					c0.295,0.006,0.604,0.014,0.861,0.02l0.109-0.027c-0.359-0.014-0.709-0.027-1.078-0.043c-0.346-0.035-0.674-0.082-0.977-0.1
					C11.79,24.545,12.079,24.604,12.485,24.623z"/>
				<path fill="#FFFFFF" d="M13.481,24.576l0.074,0.004C13.489,24.568,13.483,24.57,13.481,24.576z"/>
				<path fill="#FFFFFF" d="M3.103,17.918c-0.173-0.42-0.387-0.768-0.522-1.15c0.292,0.811,0.678,1.609,1.029,2.164
					C3.443,18.596,3.233,18.275,3.103,17.918z"/>
				<path fill="#FFFFFF" d="M1.954,14.834c0.114,0.561,0.198,1.025,0.381,1.441c-0.161-0.432-0.225-0.881-0.34-1.318
					C1.981,14.916,1.969,14.877,1.954,14.834z"/>
				<path fill="#FFFFFF" d="M2.147,15.441c0.093,0.514,0.276,0.922,0.434,1.326C2.421,16.307,2.252,15.857,2.147,15.441z"/>
				<path fill="#FFFFFF" d="M8.464,22.785c0.295,0.121,0.469,0.197,0.566,0.246c0.047,0.01,0.111,0.023,0.201,0.033l-0.051-0.02
					c-0.312-0.143-0.611-0.275-0.902-0.408c-0.131-0.047-0.242-0.115-0.342-0.16C8.098,22.602,8.282,22.693,8.464,22.785z"/>
				<path fill="#FFFFFF" d="M9.03,23.031C8.614,22.949,9.415,23.211,9.03,23.031L9.03,23.031z"/>
				<polygon fill="#FFFFFF" points="6.907,22.486 6.868,22.453 6.75,22.363 				"/>
				<path fill="#FFFFFF" d="M4.359,19.295c0.165,0.236,0.314,0.482,0.494,0.699C4.52,19.52,4.165,19.047,3.93,18.619
					C3.953,18.668,4,18.77,4.023,18.816C4.161,19.014,4.285,19.191,4.359,19.295z"/>
				<path fill="#FFFFFF" d="M8.95,23.572c-0.352-0.166-0.713-0.336-1.082-0.51c-0.326-0.199-0.66-0.402-1-0.609
					c-1.255-0.938-2.255-2.096-3.016-3.229c-0.33-0.504-0.724-1.234-1.038-2.006c-0.308-0.77-0.556-1.562-0.742-2.146
					c0.029,0.145,0.051,0.258,0.073,0.369c-0.046-0.146-0.096-0.307-0.152-0.484c-0.42-1.986-0.354-3.973-0.088-5.997
					c0.036-0.302,0.054-0.532,0.117-0.833c0.06-0.304,0.116-0.604,0.204-0.898c0-0.002-0.004,0.001-0.007,0.008
					c0.316-1.226,0.787-2.423,1.572-3.544c0.372-0.522,0.834-0.986,1.346-1.386c0.195-0.146,0.219-0.113,0.354-0.201
					C6.054,1.785,6.499,1.591,7.18,1.377c0,0,0.006,0.019,0.01,0.028c0.115-0.038,0.178-0.058,0.273-0.088
					C7.161,1.513,6.403,1.86,7.26,1.618l0,0L7.135,1.669L7.12,1.673l0.002,0.001c-0.189,0.084-0.294,0.164-0.395,0.24l0.363-0.159
					c-0.02,0.02-0.027,0.041-0.012,0.048L7.052,1.824c-0.055,0.024-0.1,0.044-0.1,0.044C6.938,1.883,6.928,1.896,6.923,1.906
					C6.617,2.067,6.166,2.354,6.278,2.341C6.356,2.32,6.555,2.174,6.811,2.059c0.021-0.005,0.04-0.01,0.055-0.014
					C6.536,2.202,6.896,2.108,6.7,2.206C6.437,2.326,6.195,2.489,5.951,2.643C4.985,3.318,4.338,4.116,3.804,5.144L3.731,5.276
					c-0.12,0.27-0.229,0.515-0.336,0.755C3.302,6.286,3.209,6.534,3.111,6.8c0.007-0.038,0.014-0.074,0.021-0.109
					C2.989,7.112,2.86,7.543,2.782,7.983C2.571,9.06,2.51,10.158,2.471,11.324c-0.054,1.23,0.057,2.398,0.312,3.602
					c-0.141-0.484-0.183-0.988-0.268-1.498c-0.01-0.232-0.021-0.461-0.03-0.688c0.011,0.238,0.021,0.455,0.03,0.688
					c0.06,0.441,0.096,0.895,0.181,1.312c0.104,0.414,0.192,0.807,0.328,1.125c0.014,0.072,0.005,0.074,0.026,0.143
					c0.146,0.484,0.282,0.973,0.5,1.352c0.009-0.004,0.091,0.193,0.082,0.121c0.154,0.402,0.408,0.836,0.62,1.209
					c0.085,0.164,0.208,0.307,0.327,0.447c0.857,1.26,1.943,2.334,3.322,3.164c0.326,0.232,0.754,0.412,1.107,0.607
					c-0.283-0.131-0.559-0.256-0.826-0.377c-0.271-0.166-0.537-0.326-0.797-0.482c-0.476-0.381-0.936-0.738-1.294-1.062
					c-0.089-0.078-0.175-0.152-0.256-0.225c0.479,0.488,1.008,0.912,1.55,1.287c0.301,0.193,0.592,0.426,0.91,0.598l-0.021-0.01
					c-0.256-0.121-0.492-0.287-0.742-0.432c-0.455-0.299-0.836-0.662-1.201-0.928c-0.039-0.033-0.079-0.068-0.126-0.107
					c-0.089-0.076-0.174-0.15-0.256-0.223l0.458,0.436l0.497,0.383c0.201,0.16,0.406,0.314,0.63,0.439
					c0.131,0.088,0.266,0.18,0.398,0.271l-0.045-0.021c-0.123-0.07-0.52-0.195-0.357-0.053c0.445,0.328,1.049,0.604,1.52,0.836
					c0.49,0.182,0.77,0.285,0.854,0.314c0.025,0.031-0.404-0.111-0.838-0.26c-0.416-0.184-0.826-0.387-0.797-0.363
					c0.098,0.057,0.189,0.107,0.277,0.156c-0.086-0.035-0.176-0.07-0.271-0.109c-0.203-0.082-0.439-0.25-0.568-0.316
					c-0.227-0.117-0.465-0.252-0.695-0.412c-0.223-0.176-0.449-0.355-0.688-0.527c-0.3-0.213-0.618-0.518-0.963-0.801
					c-0.02,0.02-0.148-0.164-0.118-0.092c-0.259-0.328-0.567-0.699-0.717-0.812L4.51,19.992c-0.012-0.014-0.035-0.047-0.07-0.094
					c-0.188-0.295-0.358-0.537-0.53-0.771c-0.141-0.229-0.31-0.506-0.465-0.758c-0.113-0.189-0.201-0.395-0.286-0.607
					c0.062,0.139,0.124,0.355,0.21,0.48l0.076,0.127c0.129,0.227,0.268,0.471,0.412,0.725c0.155,0.223,0.314,0.447,0.467,0.666
					c0.031,0.035,0.08,0.096,0.116,0.139c0.02,0.031,0.041,0.062,0.062,0.1l0.026,0.02c0.346,0.381,0.687,0.852,1.027,1.129
					c0.3,0.279,0.59,0.588,0.929,0.846L6.971,22.4c0.176,0.119,0.352,0.236,0.523,0.354c-0.174-0.104-0.352-0.213-0.529-0.32
					l-0.489-0.367c0.388,0.326,0.8,0.57,1.196,0.807l0.176,0.119c-0.006,0.012,0.391,0.209,0.391,0.209
					C8.112,23.131,7.995,23.064,7.882,23c0.24,0.113,0.484,0.229,0.738,0.346c1.342,0.613,2.836,0.953,4.318,1.039l-0.102,0.031
					c-0.361-0.002-0.717-0.041-1.057-0.098c-0.34-0.051-0.668-0.07-0.957-0.137c0.4,0.127,0.695,0.109,1.09,0.184
					c0,0.006,0.002,0.016-0.031,0.014c0.254,0.037,0.553,0.062,0.846,0.062l-0.311,0.061c-0.15,0.021-0.369-0.031-0.59-0.051
					c-0.246-0.035-0.479-0.068-0.709-0.102c-0.229-0.061-0.455-0.117-0.682-0.176C9.979,24.076,9.55,23.895,9.1,23.734
					c-0.4-0.146-0.758-0.379-1.137-0.564c-0.365-0.211-0.705-0.459-1.056-0.684c0.355,0.215,0.687,0.43,1.021,0.617
					C8.278,23.266,8.614,23.43,8.95,23.572z M5.779,2.295c-0.057,0.047-0.12,0.099-0.187,0.154l0.032-0.016
					C5.685,2.389,5.739,2.338,5.779,2.295z M4.432,3.478c0.34-0.401,0.86-0.868,1.411-1.259l0.001-0.009
					C5.369,2.517,4.829,2.97,4.432,3.478z M3.098,5.128l0.008-0.01L3.102,5.116L3.098,5.128z M2.187,14.168
					c-0.146-0.584-0.174-1.336-0.211-2.084c0.005-0.224-0.028-0.447-0.021-0.747c-0.006-0.373-0.007-0.599,0.01-0.898l-0.037,0.224
					c0.057-0.521,0-0.829,0.102-1.349C2.018,9.312,2.01,9.234,2.02,9.159c0.034-0.376,0.122-0.746,0.169-1.045
					c0.056-0.376,0.154-0.743,0.222-1.042c0.021-0.074,0.033-0.229,0.065-0.379C2.538,6.509,2.597,6.336,2.657,6.16L2.642,6.179
					C2.596,6.314,2.554,6.436,2.491,6.617C2.386,7.066,2.242,7.583,2.176,8.033c-0.225,1.12-0.275,2.179-0.277,3.226
					c0.006,0.194,0.016,0.48,0.022,0.675c0.048,0.673,0.054,1.505,0.199,1.94C2.139,13.947,2.158,14.096,2.187,14.168z M2.735,14.91
					c-0.187-0.74-0.299-1.59-0.303-2.314c-0.051-0.58-0.009-2.271-0.139-1.984c0.07,0.37,0.028,1.585,0.101,2.639
					c0.039,0.525,0.123,1.008,0.172,1.328C2.64,14.895,2.708,15.043,2.735,14.91z M5.349,20.229
					c-0.195-0.225-0.401-0.43-0.576-0.723C4.939,19.768,5.151,19.992,5.349,20.229z M3.411,17.814
					c0.452,0.844,0.974,1.73,1.602,2.443c0.463,0.559,0.989,1.172,1.538,1.535l0.019-0.021l-0.062-0.039
					c-0.197-0.16-0.331-0.314-0.473-0.477l0.028,0.025l-0.046-0.045c-0.096-0.104-0.198-0.209-0.322-0.326l-0.176-0.158
					c-0.594-0.68-1.16-1.426-1.589-2.133c-0.276-0.432-0.503-0.811-0.715-1.283C3.271,17.473,3.346,17.682,3.411,17.814z"/>
				<path fill="#FFFFFF" d="M7.759,22.914c0.27,0.168,0.574,0.281,0.859,0.43c0.223,0.111,0.455,0.195,0.693,0.268
					c1.096,0.416,2.449,0.721,3.711,0.732c0.037-0.025,0.043-0.057,0-0.088c-1.346-0.092-2.707-0.312-3.939-0.887l-0.029-0.008
					C8.78,23.266,8.44,23.09,8.081,22.918c-0.305-0.184-0.59-0.355-1.014-0.609c-0.3-0.205-0.593-0.428-0.888-0.646
					c-0.262-0.236-0.512-0.463-0.818-0.742C6.092,21.697,6.87,22.354,7.759,22.914z"/>
				<path fill="#FFFFFF" d="M2.335,16.275c0.095,0.283,0.189,0.566,0.285,0.855c0.166,0.365,0.329,0.729,0.497,1.1
					c0.186,0.318,0.375,0.646,0.574,0.99c-0.256-0.494-0.552-0.977-0.746-1.51C2.703,17.197,2.518,16.754,2.335,16.275z"/>
				<path fill="#FFFFFF" d="M4.052,19.725c-0.125-0.174-0.243-0.342-0.36-0.504c0.229,0.342,0.458,0.684,0.69,1.027
					c0.266,0.314,0.515,0.643,0.793,0.941c0.925,0.98,2.047,1.768,3.26,2.32c0.143,0.068,0.277,0.133,0.406,0.193
					c-1.123-0.527-2.146-1.242-3.018-2.053c-0.888-0.799-1.556-1.74-2.149-2.613L3.61,18.932c0.229,0.449,0.54,0.85,0.812,1.268
					c0.329,0.375,0.606,0.793,0.979,1.125c-0.263-0.23-0.479-0.506-0.708-0.771C4.454,20.295,4.248,20.014,4.052,19.725z"/>
				<polygon fill="#FFFFFF" points="7.495,22.752 7.673,22.871 7.882,22.998 7.759,22.914 				"/>
				<path fill="#FFFFFF" d="M6.035,21.256l-0.018-0.02l-0.498-0.484c-0.238-0.27-0.46-0.521-0.667-0.758
					c0.196,0.234,0.39,0.467,0.591,0.705C5.646,20.912,5.856,21.096,6.035,21.256z"/>
				<path fill="#FFFFFF" d="M4.932,19.604c-0.039-0.061-0.116-0.178-0.154-0.238l-0.085-0.098l0.108,0.17L4.932,19.604z"/>
				<path fill="#FFFFFF" d="M3.026,15.865c0.367,1.225,0.91,2.299,1.555,3.27c0.036,0.043,0.073,0.086,0.112,0.133
					c-0.224-0.322-0.411-0.666-0.591-1.006c-0.199-0.328-0.354-0.672-0.514-0.996c-0.062-0.129-0.177-0.314-0.226-0.449
					c-0.219-0.645-0.435-1.256-0.579-1.893c0.077,0.303,0.142,0.609,0.233,0.914L3.026,15.865z"/>
			</g>
		</g>
	</g>
</g>
<g>
	<g>
		<g>
			<g>
				<path fill="#FFFFFF" d="M8.657,1.861c0.07-0.015,0.135-0.029,0.135-0.029L8.788,1.824L8.657,1.861z"/>
				<path fill="#FFFFFF" d="M8.555,2.007l0.041-0.013c-0.004-0.001-0.006-0.003-0.01-0.005L8.555,2.007z"/>
				<path fill="#FFFFFF" d="M8.788,1.824c-0.02-0.033-0.084-0.055-0.021-0.105c0.076-0.016,0.227-0.049,0.305-0.066
					c0.072-0.036-0.008-0.039-0.012-0.058c0.078-0.017,0.154-0.033,0.152-0.042C9.257,1.519,9.173,1.517,9.02,1.543
					C8.7,1.71,7.903,1.977,8.788,1.824z"/>
				<path fill="#FFFFFF" d="M8.223,2.063l0.381-0.121c0.035-0.03,0.084-0.064,0.039-0.077C8.444,1.931,8.331,1.999,8.223,2.063z"/>
				<path fill="#FFFFFF" d="M13.366,25.074c0.002-0.006,0.008-0.008,0.074,0.004L13.366,25.074c0,0.006,0.002,0.014-0.031,0.018
					c0.295,0.006,0.604,0.014,0.861,0.02l0.109-0.027c-0.359-0.014-0.709-0.027-1.078-0.043c-0.346-0.035-0.674-0.082-0.977-0.1
					C12.671,24.996,12.96,25.055,13.366,25.074z"/>
				<path fill="#FFFFFF" d="M14.362,25.027l0.074,0.004C14.37,25.02,14.364,25.021,14.362,25.027z"/>
				<path fill="#FFFFFF" d="M3.984,18.369c-0.173-0.42-0.387-0.768-0.522-1.15c0.292,0.811,0.678,1.609,1.029,2.164
					C4.324,19.047,4.114,18.727,3.984,18.369z"/>
				<path fill="#FFFFFF" d="M2.835,15.285c0.114,0.561,0.198,1.025,0.381,1.441c-0.161-0.432-0.225-0.881-0.34-1.318
					C2.862,15.367,2.85,15.328,2.835,15.285z"/>
				<path fill="#FFFFFF" d="M3.028,15.893c0.093,0.514,0.276,0.922,0.434,1.326C3.302,16.758,3.133,16.309,3.028,15.893z"/>
				<path fill="#FFFFFF" d="M9.344,23.236c0.295,0.121,0.469,0.197,0.566,0.246c0.047,0.01,0.111,0.023,0.201,0.033l-0.051-0.02
					c-0.312-0.143-0.611-0.275-0.902-0.408c-0.131-0.047-0.242-0.115-0.342-0.16C8.979,23.053,9.163,23.145,9.344,23.236z"/>
				<path fill="#FFFFFF" d="M9.911,23.482C9.495,23.4,10.296,23.662,9.911,23.482L9.911,23.482z"/>
				<polygon fill="#FFFFFF" points="7.788,22.938 7.749,22.904 7.631,22.814 				"/>
				<path fill="#FFFFFF" d="M5.24,19.746c0.165,0.236,0.314,0.482,0.494,0.699c-0.333-0.475-0.688-0.947-0.923-1.375
					c0.022,0.049,0.069,0.15,0.093,0.197C5.042,19.465,5.166,19.643,5.24,19.746z"/>
				<path fill="#FFFFFF" d="M9.831,24.023c-0.352-0.166-0.713-0.336-1.082-0.51c-0.326-0.199-0.66-0.402-1-0.609
					c-1.255-0.938-2.255-2.096-3.016-3.229c-0.33-0.504-0.724-1.234-1.038-2.006c-0.308-0.77-0.556-1.562-0.742-2.146
					c0.029,0.145,0.051,0.258,0.073,0.369c-0.046-0.146-0.096-0.307-0.152-0.484c-0.42-1.986-0.354-3.973-0.088-5.997
					C2.822,9.109,2.84,8.879,2.903,8.579c0.06-0.304,0.116-0.604,0.204-0.898c0-0.002-0.004,0.001-0.007,0.008
					c0.316-1.226,0.787-2.423,1.572-3.544c0.372-0.522,0.834-0.986,1.346-1.386c0.195-0.146,0.219-0.113,0.354-0.201
					C6.935,2.236,7.38,2.042,8.061,1.829c0,0,0.006,0.019,0.01,0.028c0.115-0.038,0.178-0.058,0.273-0.088
					C8.042,1.964,7.284,2.312,8.141,2.069l0,0L8.016,2.121L8.001,2.125l0.002,0.001C7.813,2.209,7.709,2.29,7.608,2.366l0.363-0.159
					c-0.02,0.02-0.027,0.041-0.012,0.048L7.932,2.275c-0.055,0.024-0.1,0.044-0.1,0.044C7.819,2.334,7.809,2.347,7.803,2.357
					C7.498,2.519,7.047,2.805,7.159,2.792C7.237,2.771,7.436,2.625,7.692,2.51c0.021-0.005,0.04-0.01,0.055-0.014
					C7.417,2.653,7.776,2.56,7.581,2.657C7.318,2.777,7.076,2.94,6.832,3.094C5.866,3.77,5.219,4.567,4.685,5.595L4.612,5.728
					c-0.12,0.27-0.229,0.515-0.336,0.755C4.182,6.737,4.09,6.985,3.992,7.251c0.007-0.038,0.014-0.074,0.021-0.109
					C3.87,7.563,3.741,7.995,3.663,8.435c-0.211,1.076-0.271,2.175-0.311,3.341c-0.054,1.23,0.057,2.398,0.312,3.602
					c-0.141-0.484-0.183-0.988-0.268-1.498c-0.01-0.232-0.021-0.461-0.03-0.688c0.011,0.238,0.021,0.455,0.03,0.688
					c0.06,0.441,0.096,0.895,0.181,1.312c0.104,0.414,0.192,0.807,0.328,1.125c0.014,0.072,0.005,0.074,0.026,0.143
					c0.146,0.484,0.282,0.973,0.5,1.352c0.009-0.004,0.091,0.193,0.082,0.121c0.154,0.402,0.408,0.836,0.62,1.209
					c0.085,0.164,0.208,0.307,0.327,0.447c0.857,1.26,1.943,2.334,3.322,3.164c0.326,0.232,0.754,0.412,1.107,0.607
					c-0.283-0.131-0.559-0.256-0.826-0.377c-0.271-0.166-0.537-0.326-0.797-0.482c-0.477-0.381-0.936-0.738-1.294-1.062
					c-0.089-0.078-0.175-0.152-0.256-0.225c0.479,0.488,1.008,0.912,1.55,1.287c0.301,0.193,0.592,0.426,0.91,0.598l-0.021-0.01
					c-0.256-0.121-0.492-0.287-0.742-0.432c-0.455-0.299-0.836-0.662-1.201-0.928c-0.039-0.033-0.079-0.068-0.126-0.107
					c-0.089-0.076-0.174-0.15-0.256-0.223l0.458,0.436l0.496,0.383c0.201,0.16,0.406,0.314,0.631,0.439
					c0.131,0.088,0.266,0.18,0.398,0.271L8.77,22.906c-0.123-0.07-0.52-0.195-0.357-0.053c0.445,0.328,1.049,0.604,1.52,0.836
					c0.49,0.182,0.77,0.285,0.854,0.314c0.025,0.031-0.404-0.111-0.838-0.26c-0.416-0.184-0.826-0.387-0.797-0.363
					c0.098,0.057,0.189,0.107,0.277,0.156c-0.086-0.035-0.176-0.07-0.271-0.109c-0.203-0.082-0.439-0.25-0.568-0.316
					c-0.227-0.117-0.465-0.252-0.695-0.412c-0.223-0.176-0.449-0.355-0.688-0.527c-0.3-0.213-0.618-0.518-0.963-0.801
					c-0.02,0.02-0.148-0.164-0.118-0.092c-0.259-0.328-0.567-0.699-0.717-0.812L5.39,20.443c-0.012-0.014-0.035-0.047-0.07-0.094
					c-0.188-0.295-0.358-0.537-0.53-0.771c-0.141-0.229-0.31-0.506-0.465-0.758c-0.113-0.189-0.201-0.395-0.286-0.607
					c0.062,0.139,0.124,0.355,0.21,0.48l0.076,0.127c0.129,0.227,0.268,0.471,0.412,0.725c0.155,0.223,0.314,0.447,0.467,0.666
					c0.031,0.035,0.08,0.096,0.116,0.139c0.02,0.031,0.041,0.062,0.062,0.1l0.026,0.02c0.346,0.381,0.687,0.852,1.027,1.129
					c0.3,0.279,0.59,0.588,0.929,0.846l0.488,0.408c0.176,0.119,0.352,0.236,0.523,0.354c-0.174-0.104-0.352-0.213-0.529-0.32
					l-0.489-0.367c0.388,0.326,0.8,0.57,1.196,0.807l0.176,0.119c-0.006,0.012,0.391,0.209,0.391,0.209
					c-0.127-0.07-0.244-0.137-0.357-0.201c0.24,0.113,0.484,0.229,0.738,0.346c1.342,0.613,2.836,0.953,4.318,1.039l-0.102,0.031
					c-0.361-0.002-0.717-0.041-1.057-0.098c-0.34-0.051-0.668-0.07-0.957-0.137c0.4,0.127,0.695,0.109,1.09,0.184
					c0,0.006,0.002,0.016-0.031,0.014c0.254,0.037,0.553,0.062,0.846,0.062l-0.311,0.061c-0.15,0.021-0.369-0.031-0.59-0.051
					c-0.246-0.035-0.479-0.068-0.709-0.102c-0.229-0.061-0.455-0.117-0.682-0.176c-0.457-0.098-0.887-0.279-1.336-0.439
					c-0.4-0.146-0.758-0.379-1.137-0.564c-0.365-0.211-0.705-0.459-1.057-0.684c0.355,0.215,0.688,0.43,1.021,0.617
					C9.159,23.717,9.495,23.881,9.831,24.023z M6.66,2.747C6.603,2.793,6.54,2.846,6.473,2.9l0.032-0.016
					C6.566,2.84,6.62,2.79,6.66,2.747z M5.313,3.929c0.34-0.401,0.86-0.868,1.411-1.259l0.001-0.009
					C6.25,2.968,5.71,3.421,5.313,3.929z M3.979,5.58l0.008-0.01L3.983,5.567L3.979,5.58z M3.068,14.619
					c-0.146-0.584-0.174-1.336-0.211-2.084c0.005-0.224-0.028-0.447-0.021-0.747c-0.006-0.373-0.007-0.599,0.01-0.898l-0.037,0.224
					c0.057-0.521,0-0.829,0.102-1.349C2.899,9.763,2.89,9.686,2.901,9.61C2.935,9.234,3.023,8.864,3.07,8.565
					c0.056-0.376,0.154-0.743,0.222-1.042C3.313,7.45,3.325,7.294,3.357,7.145C3.419,6.96,3.478,6.788,3.538,6.611L3.523,6.63
					C3.477,6.766,3.435,6.887,3.372,7.068C3.267,7.518,3.123,8.034,3.056,8.484c-0.225,1.12-0.275,2.179-0.277,3.226
					c0.006,0.194,0.016,0.48,0.022,0.675c0.048,0.673,0.054,1.505,0.199,1.94C3.02,14.398,3.039,14.547,3.068,14.619z M3.616,15.361
					c-0.187-0.74-0.299-1.59-0.303-2.314c-0.051-0.58-0.009-2.271-0.139-1.984c0.07,0.37,0.028,1.585,0.101,2.639
					c0.039,0.525,0.123,1.008,0.172,1.328C3.521,15.346,3.589,15.494,3.616,15.361z M6.23,20.68
					c-0.195-0.225-0.401-0.43-0.576-0.723C5.82,20.219,6.032,20.443,6.23,20.68z M4.292,18.266c0.452,0.844,0.974,1.73,1.602,2.443
					c0.463,0.559,0.989,1.172,1.538,1.535l0.019-0.021l-0.062-0.039c-0.197-0.16-0.331-0.314-0.473-0.477l0.028,0.025l-0.046-0.045
					c-0.096-0.104-0.198-0.209-0.322-0.326L6.4,21.203c-0.594-0.68-1.16-1.426-1.589-2.133c-0.276-0.432-0.503-0.811-0.715-1.283
					C4.152,17.924,4.227,18.133,4.292,18.266z"/>
				<path fill="#FFFFFF" d="M8.639,23.365c0.27,0.168,0.574,0.281,0.859,0.43c0.223,0.111,0.455,0.195,0.693,0.268
					c1.096,0.416,2.449,0.721,3.711,0.732c0.037-0.025,0.043-0.057,0-0.088c-1.346-0.092-2.707-0.312-3.939-0.887l-0.029-0.008
					c-0.273-0.096-0.613-0.271-0.973-0.443c-0.305-0.184-0.59-0.355-1.014-0.609c-0.3-0.205-0.593-0.428-0.888-0.646
					c-0.262-0.236-0.512-0.463-0.818-0.742C6.972,22.148,7.751,22.805,8.639,23.365z"/>
				<path fill="#FFFFFF" d="M3.216,16.727c0.095,0.283,0.189,0.566,0.285,0.855c0.166,0.365,0.329,0.729,0.497,1.1
					c0.186,0.318,0.375,0.646,0.574,0.99c-0.256-0.494-0.552-0.977-0.746-1.51C3.584,17.648,3.399,17.205,3.216,16.727z"/>
				<path fill="#FFFFFF" d="M4.932,20.176c-0.125-0.174-0.243-0.342-0.36-0.504c0.229,0.342,0.458,0.684,0.69,1.027
					c0.266,0.314,0.515,0.643,0.793,0.941c0.925,0.98,2.047,1.768,3.26,2.32c0.143,0.068,0.277,0.133,0.406,0.193
					c-1.123-0.527-2.146-1.242-3.018-2.053c-0.888-0.799-1.556-1.74-2.149-2.613l-0.063-0.105c0.229,0.449,0.54,0.85,0.812,1.268
					c0.329,0.375,0.606,0.793,0.979,1.125c-0.263-0.23-0.479-0.506-0.708-0.771C5.335,20.746,5.129,20.465,4.932,20.176z"/>
				<polygon fill="#FFFFFF" points="8.376,23.203 8.553,23.322 8.762,23.449 8.639,23.365 				"/>
				<path fill="#FFFFFF" d="M6.916,21.707l-0.018-0.02L6.4,21.203c-0.238-0.27-0.46-0.521-0.667-0.758
					c0.196,0.234,0.39,0.467,0.591,0.705C6.527,21.363,6.737,21.547,6.916,21.707z"/>
				<path fill="#FFFFFF" d="M5.813,20.055c-0.039-0.061-0.116-0.178-0.154-0.238l-0.085-0.098l0.108,0.17L5.813,20.055z"/>
				<path fill="#FFFFFF" d="M3.907,16.316c0.367,1.225,0.91,2.299,1.555,3.27c0.036,0.043,0.073,0.086,0.112,0.133
					c-0.224-0.322-0.411-0.666-0.591-1.006c-0.199-0.328-0.354-0.672-0.514-0.996c-0.062-0.129-0.177-0.314-0.226-0.449
					c-0.219-0.645-0.435-1.256-0.579-1.893c0.077,0.303,0.142,0.609,0.233,0.914L3.907,16.316z"/>
			</g>
		</g>
	</g>
</g>
<g>
	<g>
		<g>
			<g>
				<path fill="#FFFFFF" d="M8.425,1.239C8.495,1.225,8.559,1.21,8.559,1.21L8.555,1.202L8.425,1.239z"/>
				<path fill="#FFFFFF" d="M8.323,1.385l0.041-0.013C8.36,1.372,8.358,1.37,8.354,1.367L8.323,1.385z"/>
				<path fill="#FFFFFF" d="M8.555,1.202c-0.02-0.033-0.084-0.055-0.021-0.105C8.61,1.081,8.76,1.047,8.839,1.03
					c0.072-0.036-0.008-0.039-0.012-0.058c0.078-0.017,0.154-0.033,0.152-0.042C9.024,0.896,8.94,0.895,8.788,0.921
					C8.468,1.088,7.671,1.354,8.555,1.202z"/>
				<path fill="#FFFFFF" d="M7.991,1.441L8.372,1.32c0.035-0.03,0.084-0.064,0.039-0.077C8.212,1.309,8.098,1.376,7.991,1.441z"/>
				<path fill="#FFFFFF" d="M13.134,24.452c0.002-0.006,0.008-0.008,0.074,0.004L13.134,24.452c0,0.006,0.002,0.014-0.031,0.018
					c0.295,0.006,0.604,0.014,0.861,0.02l0.109-0.027c-0.359-0.014-0.709-0.027-1.078-0.043c-0.346-0.035-0.674-0.082-0.977-0.1
					C12.438,24.374,12.727,24.433,13.134,24.452z"/>
				<path fill="#FFFFFF" d="M14.13,24.405l0.074,0.004C14.137,24.397,14.132,24.399,14.13,24.405z"/>
				<path fill="#FFFFFF" d="M3.752,17.747c-0.173-0.42-0.387-0.768-0.522-1.15c0.292,0.811,0.678,1.609,1.029,2.164
					C4.092,18.425,3.882,18.104,3.752,17.747z"/>
				<path fill="#FFFFFF" d="M2.603,14.663c0.114,0.561,0.198,1.025,0.381,1.441c-0.161-0.432-0.225-0.881-0.34-1.318
					C2.63,14.745,2.618,14.706,2.603,14.663z"/>
				<path fill="#FFFFFF" d="M2.796,15.271c0.093,0.514,0.276,0.922,0.434,1.326C3.07,16.136,2.901,15.687,2.796,15.271z"/>
				<path fill="#FFFFFF" d="M9.112,22.614c0.295,0.121,0.469,0.197,0.566,0.246c0.047,0.01,0.111,0.023,0.201,0.033l-0.051-0.02
					c-0.312-0.143-0.611-0.275-0.902-0.408c-0.131-0.047-0.242-0.115-0.342-0.16C8.747,22.431,8.93,22.522,9.112,22.614z"/>
				<path fill="#FFFFFF" d="M9.678,22.86C9.262,22.778,10.063,23.04,9.678,22.86L9.678,22.86z"/>
				<polygon fill="#FFFFFF" points="7.555,22.315 7.516,22.282 7.399,22.192 				"/>
				<path fill="#FFFFFF" d="M5.008,19.124c0.165,0.236,0.314,0.482,0.494,0.699c-0.333-0.475-0.688-0.947-0.923-1.375
					c0.022,0.049,0.069,0.15,0.093,0.197C4.81,18.843,4.934,19.021,5.008,19.124z"/>
				<path fill="#FFFFFF" d="M9.598,23.401c-0.352-0.166-0.713-0.336-1.082-0.51c-0.326-0.199-0.66-0.402-1-0.609
					c-1.254-0.938-2.254-2.096-3.015-3.229c-0.33-0.504-0.724-1.234-1.038-2.006c-0.308-0.77-0.556-1.562-0.742-2.146
					c0.029,0.145,0.051,0.258,0.073,0.369c-0.046-0.146-0.096-0.307-0.152-0.484C2.222,12.8,2.288,10.813,2.554,8.79
					C2.59,8.487,2.608,8.257,2.671,7.957c0.06-0.304,0.116-0.604,0.204-0.898c0-0.002-0.004,0.001-0.007,0.008
					C3.185,5.84,3.656,4.644,4.441,3.522C4.813,3,5.275,2.537,5.786,2.137c0.195-0.146,0.219-0.113,0.354-0.201
					C6.703,1.614,7.147,1.42,7.829,1.207c0,0,0.006,0.019,0.01,0.028c0.115-0.038,0.178-0.058,0.273-0.088
					C7.809,1.342,7.052,1.689,7.909,1.447l0,0L7.784,1.499L7.768,1.502L7.77,1.503c-0.189,0.084-0.293,0.164-0.395,0.24l0.363-0.159
					c-0.02,0.02-0.027,0.041-0.012,0.048L7.7,1.653C7.645,1.678,7.6,1.697,7.6,1.697C7.587,1.712,7.577,1.725,7.571,1.735
					C7.266,1.896,6.815,2.183,6.927,2.17C7.005,2.149,7.204,2.003,7.46,1.888c0.021-0.005,0.041-0.01,0.055-0.014
					c-0.33,0.158,0.029,0.064-0.166,0.161C7.087,2.155,6.844,2.318,6.6,2.472C5.634,3.147,4.987,3.945,4.453,4.973L4.38,5.105
					C4.26,5.375,4.151,5.621,4.044,5.86C3.95,6.115,3.858,6.363,3.76,6.629c0.007-0.038,0.014-0.074,0.021-0.109
					c-0.143,0.421-0.271,0.852-0.35,1.292C3.22,8.889,3.159,9.987,3.12,11.153c-0.054,1.23,0.057,2.398,0.312,3.602
					c-0.141-0.484-0.183-0.988-0.268-1.498c-0.01-0.232-0.021-0.461-0.03-0.688c0.011,0.238,0.021,0.455,0.03,0.688
					c0.06,0.441,0.096,0.895,0.181,1.312c0.104,0.414,0.192,0.807,0.328,1.125c0.014,0.072,0.005,0.074,0.026,0.143
					c0.146,0.484,0.282,0.973,0.5,1.352c0.009-0.004,0.091,0.193,0.082,0.121c0.154,0.402,0.408,0.836,0.62,1.209
					c0.085,0.164,0.208,0.307,0.327,0.447c0.857,1.26,1.943,2.334,3.322,3.164c0.326,0.232,0.754,0.412,1.107,0.607
					C9.376,22.606,9.1,22.481,8.833,22.36c-0.271-0.166-0.537-0.326-0.797-0.482C7.559,21.497,7.1,21.14,6.742,20.815
					c-0.089-0.078-0.175-0.152-0.256-0.225c0.479,0.488,1.008,0.912,1.549,1.287c0.301,0.193,0.592,0.426,0.91,0.598l-0.021-0.01
					c-0.256-0.121-0.492-0.287-0.742-0.432c-0.455-0.299-0.836-0.662-1.201-0.928c-0.039-0.033-0.079-0.068-0.125-0.107
					c-0.089-0.076-0.174-0.15-0.256-0.223l0.458,0.436l0.496,0.383c0.201,0.16,0.406,0.314,0.631,0.439
					c0.131,0.088,0.266,0.18,0.398,0.271l-0.045-0.021c-0.123-0.07-0.52-0.195-0.357-0.053c0.445,0.328,1.049,0.604,1.52,0.836
					c0.49,0.182,0.77,0.285,0.854,0.314c0.025,0.031-0.404-0.111-0.838-0.26c-0.416-0.184-0.826-0.387-0.797-0.363
					c0.098,0.057,0.189,0.107,0.277,0.156c-0.086-0.035-0.176-0.07-0.271-0.109c-0.203-0.082-0.439-0.25-0.568-0.316
					c-0.227-0.117-0.465-0.252-0.695-0.412c-0.223-0.176-0.449-0.355-0.688-0.527c-0.299-0.213-0.618-0.518-0.962-0.801
					c-0.02,0.02-0.148-0.164-0.118-0.092c-0.259-0.328-0.567-0.699-0.717-0.812l-0.018-0.023c-0.012-0.014-0.035-0.047-0.07-0.094
					c-0.188-0.295-0.358-0.537-0.53-0.771c-0.141-0.229-0.31-0.506-0.465-0.758c-0.113-0.189-0.201-0.395-0.286-0.607
					c0.062,0.139,0.124,0.355,0.21,0.48l0.076,0.127c0.129,0.227,0.268,0.471,0.412,0.725c0.155,0.223,0.314,0.447,0.467,0.666
					c0.031,0.035,0.08,0.096,0.116,0.139c0.02,0.031,0.041,0.062,0.062,0.1l0.026,0.02c0.346,0.381,0.687,0.852,1.027,1.129
					c0.3,0.279,0.59,0.588,0.928,0.846l0.488,0.408c0.176,0.119,0.352,0.236,0.523,0.354c-0.174-0.104-0.352-0.213-0.529-0.32
					l-0.488-0.367c0.387,0.326,0.799,0.57,1.195,0.807l0.176,0.119c-0.006,0.012,0.391,0.209,0.391,0.209
					c-0.127-0.07-0.244-0.137-0.357-0.201c0.24,0.113,0.484,0.229,0.738,0.346c1.342,0.613,2.836,0.953,4.318,1.039l-0.102,0.031
					c-0.361-0.002-0.717-0.041-1.057-0.098c-0.34-0.051-0.668-0.07-0.957-0.137c0.4,0.127,0.695,0.109,1.09,0.184
					c0,0.006,0.002,0.016-0.031,0.014c0.254,0.037,0.553,0.062,0.846,0.062l-0.311,0.061c-0.15,0.021-0.369-0.031-0.59-0.051
					c-0.246-0.035-0.479-0.068-0.709-0.102c-0.229-0.061-0.455-0.117-0.682-0.176c-0.457-0.098-0.887-0.279-1.336-0.439
					c-0.4-0.146-0.758-0.379-1.137-0.564c-0.365-0.211-0.705-0.459-1.057-0.684c0.355,0.215,0.688,0.43,1.021,0.617
					C8.927,23.095,9.262,23.259,9.598,23.401z M6.428,2.125c-0.057,0.047-0.12,0.099-0.187,0.154l0.032-0.016
					C6.334,2.218,6.388,2.167,6.428,2.125z M5.081,3.307c0.34-0.401,0.86-0.868,1.411-1.259l0.001-0.009
					C6.018,2.346,5.478,2.799,5.081,3.307z M3.747,4.958l0.008-0.01L3.751,4.945L3.747,4.958z M2.836,13.997
					c-0.146-0.584-0.174-1.336-0.211-2.084c0.005-0.224-0.028-0.447-0.021-0.747c-0.006-0.373-0.007-0.599,0.01-0.898l-0.037,0.224
					c0.057-0.521,0-0.829,0.102-1.349c-0.011-0.002-0.02-0.079-0.009-0.154c0.034-0.376,0.122-0.746,0.169-1.045
					C2.894,7.567,2.992,7.2,3.06,6.901c0.021-0.074,0.033-0.229,0.065-0.379c0.062-0.184,0.121-0.357,0.181-0.533L3.291,6.008
					C3.245,6.144,3.203,6.265,3.14,6.446C3.035,6.896,2.891,7.412,2.824,7.862c-0.225,1.12-0.275,2.179-0.277,3.226
					c0.006,0.194,0.016,0.48,0.022,0.675c0.048,0.673,0.054,1.505,0.199,1.94C2.788,13.776,2.807,13.925,2.836,13.997z
					 M3.384,14.739c-0.187-0.74-0.299-1.59-0.303-2.314c-0.051-0.58-0.009-2.271-0.139-1.984c0.07,0.37,0.028,1.585,0.101,2.639
					c0.039,0.525,0.123,1.008,0.172,1.328C3.289,14.724,3.357,14.872,3.384,14.739z M5.998,20.058
					c-0.195-0.225-0.401-0.43-0.576-0.723C5.588,19.597,5.8,19.821,5.998,20.058z M4.06,17.644c0.452,0.844,0.974,1.73,1.602,2.443
					c0.463,0.559,0.989,1.172,1.539,1.535l0.018-0.021l-0.061-0.039c-0.197-0.16-0.332-0.314-0.473-0.477l0.028,0.025l-0.046-0.045
					c-0.096-0.104-0.198-0.209-0.322-0.326l-0.176-0.158c-0.594-0.68-1.16-1.426-1.589-2.133c-0.276-0.432-0.503-0.811-0.715-1.283
					C3.92,17.302,3.995,17.511,4.06,17.644z"/>
				<path fill="#FFFFFF" d="M8.407,22.743c0.27,0.168,0.574,0.281,0.859,0.43c0.223,0.111,0.455,0.195,0.693,0.268
					c1.096,0.416,2.449,0.721,3.711,0.732c0.037-0.025,0.043-0.057,0-0.088c-1.346-0.092-2.707-0.312-3.939-0.887L9.702,23.19
					c-0.273-0.096-0.613-0.271-0.973-0.443c-0.305-0.184-0.59-0.355-1.014-0.609c-0.299-0.205-0.592-0.428-0.887-0.646
					c-0.262-0.236-0.512-0.463-0.818-0.742C6.74,21.526,7.518,22.183,8.407,22.743z"/>
				<path fill="#FFFFFF" d="M2.984,16.104c0.095,0.283,0.189,0.566,0.285,0.855c0.166,0.365,0.329,0.729,0.497,1.1
					c0.186,0.318,0.375,0.646,0.574,0.99c-0.256-0.494-0.552-0.977-0.746-1.51C3.352,17.026,3.167,16.583,2.984,16.104z"/>
				<path fill="#FFFFFF" d="M4.7,19.554c-0.125-0.174-0.243-0.342-0.36-0.504c0.229,0.342,0.458,0.684,0.69,1.027
					c0.266,0.314,0.515,0.643,0.793,0.941c0.925,0.98,2.046,1.768,3.259,2.32c0.143,0.068,0.277,0.133,0.406,0.193
					c-1.123-0.527-2.145-1.242-3.017-2.053c-0.888-0.799-1.556-1.74-2.149-2.613l-0.063-0.105c0.229,0.449,0.54,0.85,0.812,1.268
					c0.329,0.375,0.606,0.793,0.979,1.125c-0.263-0.23-0.479-0.506-0.708-0.771C5.103,20.124,4.897,19.843,4.7,19.554z"/>
				<polygon fill="#FFFFFF" points="8.143,22.581 8.321,22.7 8.53,22.827 8.407,22.743 				"/>
				<path fill="#FFFFFF" d="M6.684,21.085l-0.018-0.02l-0.498-0.484c-0.238-0.27-0.46-0.521-0.667-0.758
					c0.196,0.234,0.39,0.467,0.591,0.705C6.295,20.741,6.505,20.925,6.684,21.085z"/>
				<path fill="#FFFFFF" d="M5.581,19.433c-0.039-0.061-0.116-0.178-0.154-0.238l-0.085-0.098l0.108,0.17L5.581,19.433z"/>
				<path fill="#FFFFFF" d="M3.675,15.694c0.367,1.225,0.91,2.299,1.555,3.27c0.036,0.043,0.073,0.086,0.112,0.133
					c-0.224-0.322-0.411-0.666-0.591-1.006c-0.199-0.328-0.354-0.672-0.514-0.996c-0.062-0.129-0.177-0.314-0.226-0.449
					c-0.219-0.645-0.435-1.256-0.579-1.893c0.077,0.303,0.142,0.609,0.233,0.914L3.675,15.694z"/>
			</g>
		</g>
	</g>
</g>
</svg>
