<?xml version="1.0" encoding="utf-8"?>
<!-- Generator: Adobe Illustrator 16.0.0, SVG Export Plug-In . SVG Version: 6.00 Build 0)  -->
<!DOCTYPE svg PUBLIC "-//W3C//DTD SVG 1.1//EN" "http://www.w3.org/Graphics/SVG/1.1/DTD/svg11.dtd">
<svg version="1.1" id="Layer_1" xmlns="http://www.w3.org/2000/svg" xmlns:xlink="http://www.w3.org/1999/xlink" x="0px" y="0px"
	 width="158.509px" height="134.186px" viewBox="0 0 158.509 134.186" enable-background="new 0 0 158.509 134.186"
	 xml:space="preserve">
<circle opacity="0.05" fill="#010101" cx="66.421" cy="66.421" r="66.421"/>
<path opacity="0.05" fill="#010101" d="M52.822,100.576c8.615-12.744,8.958-16.77,10.38-19.471c0.808-1.529,3.072-4.148,4.883-6.133
	c1.8-0.776,3.49-2.141,4.756-4.012c1.263-1.87,1.899-3.941,1.948-5.899c1.176-2.437,2.777-5.544,3.907-6.875
	c1.98-2.341,5.6-4.175,14.259-16.986c8.658-12.811,12.979-27.504,12.979-27.504l-5.319-3.596c0,0-14.891,13.331-20.867,22.173
	c-5.977,8.843-8.409,17.976-10.3,20.378c-0.982,1.25-2.937,3.4-4.588,5.181c-1.977,0.732-3.852,2.166-5.228,4.202
	c-1.378,2.039-2.009,4.315-1.95,6.426c-1.026,2.18-2.281,4.769-3.065,6.134c-1.515,2.635-9.058,8.26-15.003,17.057
	c-5.945,8.796-12.708,27.497-12.708,27.497l5.32,3.596C32.227,122.743,44.208,113.319,52.822,100.576z M71.323,70.024
	c-0.376,0.556-1.133,0.704-1.688,0.327c-0.559-0.377-0.705-1.134-0.33-1.691c0.377-0.558,1.137-0.704,1.691-0.327
	C71.554,68.708,71.701,69.465,71.323,70.024z M61.013,63.037c0.376-0.557,1.133-0.704,1.691-0.327
	c0.556,0.376,0.703,1.134,0.326,1.691c-0.376,0.557-1.134,0.704-1.691,0.327C60.781,64.352,60.636,63.594,61.013,63.037z
	 M62.696,71.723c-0.557-0.377-0.704-1.135-0.327-1.693c0.376-0.556,1.134-0.702,1.69-0.327c0.559,0.378,0.705,1.135,0.329,1.692
	C64.011,71.954,63.253,72.1,62.696,71.723z M69.684,61.41c0.556,0.378,0.703,1.136,0.326,1.693
	c-0.377,0.557-1.135,0.703-1.689,0.326c-0.557-0.376-0.705-1.134-0.328-1.691C68.369,61.18,69.127,61.034,69.684,61.41z
	 M64.264,65.165c0.737-1.09,2.216-1.376,3.306-0.64c1.088,0.737,1.374,2.217,0.64,3.305c-0.735,1.088-2.217,1.375-3.305,0.639
	C63.815,67.733,63.528,66.253,64.264,65.165z"/>
</svg>
