<?xml version="1.0" encoding="utf-8"?>
<!-- Generator: Adobe Illustrator 16.0.0, SVG Export Plug-In . SVG Version: 6.00 Build 0)  -->
<!DOCTYPE svg PUBLIC "-//W3C//DTD SVG 1.1//EN" "http://www.w3.org/Graphics/SVG/1.1/DTD/svg11.dtd">
<svg version="1.1" id="Layer_1" xmlns="http://www.w3.org/2000/svg" xmlns:xlink="http://www.w3.org/1999/xlink" x="0px" y="0px"
	 width="48px" height="48px" viewBox="0 0 48 48" enable-background="new 0 0 48 48" xml:space="preserve">
<g opacity="0.05">
	<path d="M16.378,40.142l25.319-32.17c0.312-0.401,0.461-0.912,0.401-1.42c-0.063-0.508-0.32-0.969-0.725-1.286L37.061,1.87
		c-0.351-0.277-0.774-0.413-1.188-0.413c-0.574,0-1.138,0.251-1.519,0.737L9.035,34.362L16.378,40.142z"/>
	<path d="M6.7,37.325c-0.08,0.106-0.133,0.228-0.162,0.357L4.872,45.99c-0.06,0.312,0.053,0.633,0.307,0.83
		C5.328,46.938,5.514,47,5.698,47c0.122,0,0.244-0.026,0.357-0.078l7.682-3.574c0.121-0.057,0.226-0.138,0.307-0.244l0.022-0.026
		l-7.342-5.779L6.7,37.325z"/>
</g>
</svg>
