<?xml version="1.0" encoding="utf-8"?>
<!-- Generator: Adobe Illustrator 16.0.0, SVG Export Plug-In . SVG Version: 6.00 Build 0)  -->
<!DOCTYPE svg PUBLIC "-//W3C//DTD SVG 1.1//EN" "http://www.w3.org/Graphics/SVG/1.1/DTD/svg11.dtd">
<svg version="1.1" id="Layer_1" xmlns="http://www.w3.org/2000/svg" xmlns:xlink="http://www.w3.org/1999/xlink" x="0px" y="0px"
	 width="376.995px" height="376.496px" viewBox="114.484 31.978 376.995 376.496"
	 enable-background="new 114.484 31.978 376.995 376.496" xml:space="preserve">
<path d="M-612,320v96h96v-96H-612z M-529,403h-70v-70h70V403z"/>
<path opacity="0.05" fill="#020202" d="M373.847,54.873c93.847,28.647,174.093,98.851,214.44,188.334
	c5.148,12.085-1.898,27.033-14.015,31.613c-12.036,6.562-28.673,0.343-33.547-12.452
	c-35.043-75.178-102.559-134.564-182.074-158.607c-65.799-20.638-138.667-16.976-202.345,9.347
	c-5.776,2.637-12.409,4.072-18.617,2.02c-15.953-4.098-23.915-25.494-14.861-39.152c2.997-5.001,8.161-8.137,13.474-10.188
	C210.993,34.604,296.593,30.778,373.847,54.873z"/>
<path opacity="0.05" fill="#020202" d="M337.044,143.545c72.89,19.378,135.583,73.186,165.806,142.271
	c4.325,11.818-2.212,25.896-13.87,30.521c-11.539,6.57-27.757,1.552-33.283-10.573c-19.642-43.475-54.838-79.846-98.019-100.234
	c-52.231-25.292-115.258-26.086-168.344-2.888c-12.473,5.947-28.564-1.484-32.695-14.523c-5.466-11.429-0.453-26.542,11.114-31.954
	C220.526,132.754,281.367,128.38,337.044,143.545z"/>
<path opacity="0.05" fill="#020202" d="M313.301,235.884c45.836,12.647,84.956,47.158,103.341,90.979
	c5.034,12.001-1.753,26.692-13.738,31.376c-11.789,6.606-28.165,1.042-33.399-11.433c-10.459-24.454-30.109-44.943-54.42-55.877
	c-27.408-12.882-60.221-12.75-87.875-0.664c-7.057,3.633-15.678,4.208-22.819,0.439c-16.903-7.919-20.018-35.764-2.679-45.068
	C235.989,228.75,276.577,225.752,313.301,235.884z"/>
<path opacity="0.05" fill="#020202" d="M288.281,321.008c30.29,6.2,50.1,40.831,39.889,70.031
	c-8.273,29.306-43.599,46.517-71.748,34.943c-25.863-8.961-41.348-39.259-33.793-65.505
	C229.27,332.427,260.4,313.786,288.281,321.008z"/>
</svg>
